<svg width="864" height="1779" viewBox="0 0 864 1779" fill="none" xmlns="http://www.w3.org/2000/svg">
<path d="M369.729 1676.57C369.339 1682.04 295.579 1757.17 270.929 1764.61C246.279 1772.04 179.759 1768.13 162.249 1747.2C153.149 1736.33 151.259 1723.45 156.209 1711.44C160.769 1700.33 171.199 1689.96 187.189 1682.63C220.449 1667.37 237.359 1622.18 237.359 1622.18C237.359 1622.18 282.889 1634.59 325.609 1623.7C338.089 1620.52 350.329 1615.35 361.129 1607.3C361.129 1607.3 370.129 1671.09 369.729 1676.57Z" fill="#1F2640"/>
<path d="M328.24 1647.92C327.91 1652.57 265.37 1716.26 244.47 1722.57C225.79 1728.2 178.79 1726.15 158.4 1712.98C157.63 1712.48 156.9 1711.97 156.21 1711.44C160.77 1700.33 171.2 1689.96 187.19 1682.63C220.45 1667.37 237.36 1622.18 237.36 1622.18C237.36 1622.18 243.09 1623.74 252.39 1625.27C269.31 1628.05 298.04 1630.73 325.61 1623.7C327.12 1635.37 328.38 1645.98 328.24 1647.92Z" fill="#2C3450"/>
<path d="M252.39 1625.27C251.22 1632.49 250.15 1638.13 249.34 1640.7C245.69 1652.17 228.34 1684.52 202.26 1693.26C176.17 1702 165.32 1715.56 165.32 1715.56C165.32 1715.56 162.57 1714.57 158.4 1712.98C157.63 1712.48 156.9 1711.97 156.21 1711.44C160.77 1700.33 171.2 1689.96 187.19 1682.63C220.45 1667.37 237.36 1622.18 237.36 1622.18C237.36 1622.18 243.09 1623.74 252.39 1625.27Z" fill="#636F93"/>
<path d="M239.38 1778.1C230.79 1778.1 221.68 1777.56 212.7 1776.47C192.89 1774.06 166.72 1768.14 154.57 1753.61C145.08 1742.27 141.54 1728.57 144.6 1715.03C148.47 1697.86 162.12 1683.13 183.01 1673.54C212.18 1660.15 227.83 1619.08 227.98 1618.67L231.18 1610.13L239.98 1612.53C240.69 1612.72 311.95 1631.5 355.14 1599.29L368.66 1589.2L371.02 1605.91C374.44 1630.12 380.11 1671.59 379.7 1677.28C379.45 1680.76 378.61 1683.64 364.92 1698.39C356.96 1706.97 346.53 1717.44 336.29 1727.12C316.3 1746.02 289.23 1769.53 273.81 1774.18C265.27 1776.76 252.96 1778.1 239.38 1778.1ZM243.23 1633.79C236.34 1648.46 219.23 1678.93 191.36 1691.72C176.48 1698.55 166.55 1708.65 164.12 1719.43C162.44 1726.86 164.45 1734.24 169.92 1740.78C183.4 1756.89 244.71 1762.07 268.05 1755.03C274.56 1753.07 291.54 1741.6 319.7 1715.28C340.23 1696.1 355.4 1679.57 359.64 1674.06C359.06 1666.94 356.37 1645.94 353.35 1623.92C313.06 1644.82 263.01 1637.8 243.23 1633.79Z" fill="#131831"/>
<path d="M494.27 1676.57C494.66 1682.04 568.42 1757.17 593.07 1764.61C617.72 1772.04 684.24 1768.13 701.75 1747.2C710.85 1736.33 712.74 1723.45 707.79 1711.44C703.23 1700.33 692.8 1689.96 676.81 1682.63C643.55 1667.37 626.64 1622.18 626.64 1622.18C626.64 1622.18 581.11 1634.59 538.39 1623.7C525.91 1620.52 513.67 1615.35 502.87 1607.3C502.87 1607.3 493.87 1671.09 494.27 1676.57Z" fill="#1F2640"/>
<path d="M535.76 1647.92C536.09 1652.57 598.63 1716.26 619.53 1722.57C638.21 1728.2 685.21 1726.15 705.6 1712.98C706.37 1712.48 707.1 1711.97 707.79 1711.44C703.23 1700.33 692.8 1689.96 676.81 1682.63C643.55 1667.37 626.64 1622.18 626.64 1622.18C626.64 1622.18 620.91 1623.74 611.61 1625.27C594.69 1628.05 565.96 1630.73 538.39 1623.7C536.88 1635.37 535.62 1645.98 535.76 1647.92Z" fill="#2C3450"/>
<path d="M611.609 1625.27C612.779 1632.49 613.849 1638.13 614.659 1640.7C618.309 1652.17 635.659 1684.52 661.739 1693.26C687.829 1702 698.679 1715.56 698.679 1715.56C698.679 1715.56 701.429 1714.57 705.599 1712.98C706.369 1712.48 707.099 1711.97 707.789 1711.44C703.229 1700.33 692.799 1689.96 676.809 1682.63C643.549 1667.37 626.639 1622.18 626.639 1622.18C626.639 1622.18 620.909 1623.74 611.609 1625.27Z" fill="#636F93"/>
<path d="M590.189 1774.18C574.759 1769.53 547.699 1746.02 527.709 1727.12C517.479 1717.44 507.039 1706.97 499.079 1698.39C485.399 1683.64 484.549 1680.76 484.299 1677.28C483.889 1671.59 489.559 1630.12 492.979 1605.91L495.339 1589.2L508.859 1599.29C552.049 1631.5 623.309 1612.72 624.019 1612.53L632.819 1610.13L636.019 1618.67C636.169 1619.08 651.819 1660.15 680.989 1673.54C701.889 1683.13 715.529 1697.86 719.399 1715.03C722.459 1728.57 718.919 1742.27 709.429 1753.61C697.279 1768.13 671.119 1774.05 651.299 1776.47C642.319 1777.56 633.219 1778.1 624.619 1778.1C611.039 1778.1 598.729 1776.76 590.189 1774.18ZM510.659 1623.92C507.639 1645.94 504.959 1666.94 504.369 1674.06C508.609 1679.57 523.789 1696.1 544.309 1715.28C572.469 1741.59 589.449 1753.07 595.959 1755.03C619.299 1762.07 680.609 1756.89 694.089 1740.78C699.559 1734.24 701.569 1726.86 699.889 1719.43C697.459 1708.64 687.529 1698.54 672.649 1691.72C644.769 1678.93 627.669 1648.46 620.779 1633.79C600.989 1637.8 550.939 1644.82 510.659 1623.92Z" fill="#131831"/>
<path d="M368.99 908.69L329.96 945.54L317.6 932.45L361.2 891.29L360.64 890.05H300.93C310.18 926.48 328.94 979.21 365.89 1024.81L387.52 950.07L368.99 908.69ZM372.75 970.14C372.38 971.55 370.47 971.76 369.79 970.48C365.46 962.31 355.31 942.43 355.57 935.79C355.58 935.47 355.72 935.17 355.92 934.92L361.78 927.6C363.49 925.46 366.86 925.9 367.97 928.4L377.68 950.31C377.83 950.64 377.86 951.02 377.76 951.37L372.75 970.14Z" fill="#B2B4CD"/>
<path d="M503.35 890.04L502.79 891.28L546.39 932.44L534.03 945.53L495 908.68L476.47 950.06L498.11 1024.8C535.06 979.2 553.81 926.47 563.07 890.04H503.35ZM494.21 970.48C493.53 971.77 491.63 971.55 491.25 970.14L486.25 951.37C486.16 951.02 486.19 950.64 486.33 950.31L496.04 928.4C497.15 925.9 500.52 925.46 502.23 927.6L508.09 934.92C508.29 935.17 508.42 935.47 508.44 935.79C508.69 942.43 498.55 962.31 494.21 970.48Z" fill="#B2B4CD"/>
<path d="M494.999 908.68L481.139 895.59L461.709 938.98C454.819 937.62 443.939 935.95 431.999 935.95C420.059 935.95 409.179 937.62 402.289 938.98L382.849 895.59L368.989 908.68L387.519 950.05L365.889 1024.79L364.029 1031.22L431.999 1100.78L499.969 1031.22L498.109 1024.79L476.469 950.05L494.999 908.68ZM479.759 1026.16L431.999 1075.04L384.229 1026.16L404.269 956.96C410.109 955.74 420.609 953.96 431.999 953.96C443.389 953.96 453.889 955.74 459.729 956.96L479.759 1026.16Z" fill="#530500"/>
<path d="M360.64 890.04L361.2 891.29L362.52 890.04H360.64Z" fill="#530500"/>
<path d="M502.8 891.29L503.349 890.04H501.479L502.8 891.29Z" fill="#530500"/>
<path d="M432 953.96C420.61 953.96 410.11 955.74 404.27 956.96L384.229 1026.16L432 1075.04L479.76 1026.16L459.729 956.96C453.889 955.74 443.39 953.96 432 953.96ZM463.03 1015.19C446.01 1032.61 417.989 1032.61 400.969 1015.19C398.029 1012.18 396.939 1007.83 398.109 1003.79L409.2 965.49C410.48 961.08 414.22 957.8 418.78 957.18C422.65 956.65 427.22 956.23 432.01 956.23C436.8 956.23 441.37 956.65 445.24 957.18C449.79 957.8 453.54 961.08 454.82 965.49L465.91 1003.79C467.06 1007.83 465.97 1012.18 463.03 1015.19Z" fill="#9E0D0D"/>
<path d="M464.46 890.04C467.74 893.08 469.06 898.02 467.03 902.54L459.09 920.28C457.11 924.7 452.47 927.29 447.67 926.65C443.08 926.03 437.69 925.56 431.99 925.56C426.29 925.56 420.9 926.04 416.31 926.65C411.51 927.29 406.87 924.7 404.89 920.28L396.94 902.54C394.92 898.02 396.24 893.08 399.51 890.04H388.72L382.83 895.6L402.27 938.99C409.16 937.63 420.04 935.96 431.98 935.96C443.92 935.96 454.8 937.63 461.69 938.99L481.12 895.6L475.24 890.05H464.46V890.04Z" fill="#9E0D0D"/>
<path d="M445.229 957.181C441.359 956.651 436.789 956.23 431.999 956.23C427.209 956.23 422.639 956.651 418.769 957.181C414.219 957.801 410.469 961.08 409.189 965.49L398.099 1003.79C396.929 1007.83 398.019 1012.19 400.959 1015.19C417.979 1032.61 445.999 1032.61 463.019 1015.19C465.959 1012.18 467.049 1007.83 465.879 1003.79L454.789 965.49C453.529 961.07 449.779 957.801 445.229 957.181ZM438.299 969.87H425.699C422.889 969.87 420.609 967.591 420.609 964.781C420.609 961.971 422.889 959.69 425.699 959.69H438.309C441.119 959.69 443.399 961.971 443.399 964.781C443.399 967.591 441.109 969.87 438.299 969.87Z" fill="#C2241E"/>
<path d="M396.959 902.54L404.909 920.28C406.889 924.7 411.529 927.29 416.329 926.65C420.919 926.03 426.309 925.56 432.009 925.56C437.709 925.56 443.099 926.04 447.689 926.65C452.489 927.29 457.129 924.7 459.109 920.28L467.049 902.54C469.069 898.02 467.749 893.08 464.479 890.04H399.539C396.249 893.08 394.929 898.02 396.959 902.54Z" fill="#C2241E"/>
<path d="M438.299 959.7H425.699C422.889 959.7 420.609 961.98 420.609 964.79C420.609 967.6 422.889 969.88 425.699 969.88H438.309C441.119 969.88 443.399 967.6 443.399 964.79C443.399 961.98 441.109 959.7 438.299 959.7Z" fill="#ED5151"/>
<path d="M377.66 950.31L367.95 928.4C366.84 925.9 363.47 925.46 361.76 927.6L355.9 934.92C355.7 935.17 355.57 935.47 355.55 935.79C355.29 942.43 365.44 962.31 369.77 970.48C370.45 971.77 372.35 971.55 372.73 970.14L377.73 951.37C377.84 951.02 377.81 950.64 377.66 950.31Z" fill="white"/>
<path d="M475.26 890.04L481.14 895.6L495 908.68L534.04 945.53L546.4 932.45L502.8 891.29L501.48 890.04H475.26Z" fill="#4A5D6D"/>
<path d="M362.52 890.04L361.2 891.29L317.6 932.45L329.96 945.53L368.99 908.69L382.85 895.6L388.74 890.04H362.52Z" fill="#4A5D6D"/>
<path d="M502.23 927.6C500.52 925.46 497.15 925.9 496.04 928.4L486.33 950.31C486.18 950.64 486.15 951.02 486.25 951.37L491.25 970.14C491.62 971.55 493.53 971.76 494.21 970.48C498.54 962.31 508.69 942.43 508.43 935.79C508.42 935.47 508.28 935.17 508.08 934.92L502.23 927.6Z" fill="white"/>
<path d="M537.32 1418.04C537.11 1418.04 536.91 1418.04 536.7 1418.04C499.36 1417.96 464.16 1410.49 432 1395.82C399.84 1410.48 364.64 1417.96 327.3 1418.04C296.3 1418.07 263.78 1413.1 230.64 1403.16C202.27 1394.65 178.49 1384.07 161.68 1375.54C162.15 1391.38 163.76 1417.49 168.9 1448.69C176.53 1495.02 193.7 1562.2 232.21 1621.44C248.34 1624.17 310.13 1632.87 359.24 1616.22C365.19 1601.34 385.59 1548.49 393.13 1505.41C364.92 1494.01 350.97 1473.48 350.97 1473.48C350.97 1473.48 386.02 1492.83 431.99 1492.83C477.96 1492.83 513.01 1473.48 513.01 1473.48C513.01 1473.48 499.06 1494.01 470.85 1505.41C478.39 1548.49 498.79 1601.34 504.74 1616.22C553.86 1632.88 615.64 1624.17 631.77 1621.44C670.28 1562.2 687.45 1495.02 695.08 1448.69C700.22 1417.49 701.83 1391.38 702.3 1375.54C685.49 1384.07 661.72 1394.65 633.34 1403.16C600.44 1413.04 568.13 1418.04 537.32 1418.04Z" fill="#1278CC"/>
<path d="M319.64 996.48C288.95 989.72 267.9 975.49 257.07 954.18C241.8 924.13 249.41 886.11 255.72 865.12C261.61 898.45 279.74 971.88 327.6 994.91C327.6 994.91 324.32 995.8 319.64 996.48Z" fill="#1278CC"/>
<path d="M354.58 1005.02C323.7 968.111 294.67 918.131 287.34 856.041L289.49 847.681C294.8 866.661 304.23 897.271 318.18 931.211C329.56 958.921 341.71 983.551 354.58 1005.02Z" fill="#88CCFF"/>
<path d="M429.059 1088.21C427.349 1091.74 425.589 1095.49 423.799 1099.45C351.119 1079.67 318.279 1052.24 303.489 1032.28C293.509 1018.81 290.349 1007.2 289.409 1000.13C295.599 1000.03 301.919 999.371 307.179 998.641C313.909 1007.68 351.289 1054.96 409.669 1073.8C415.129 1078.61 420.669 1082.97 426.309 1086.87C427.169 1087.47 428.099 1087.91 429.059 1088.21Z" fill="#1278CC"/>
<path d="M576.67 856.041C569.33 918.171 540.26 968.191 509.35 1005.1C522.25 983.611 534.42 958.971 545.82 931.211C559.77 897.261 569.21 866.651 574.51 847.671L576.67 856.041Z" fill="#88CCFF"/>
<path d="M606.929 954.18C596.099 975.49 575.059 989.72 544.369 996.48H544.359C539.679 995.8 536.399 994.91 536.399 994.91C584.259 971.88 602.389 898.45 608.279 865.12C614.589 886.11 622.199 924.13 606.929 954.18Z" fill="#1278CC"/>
<path d="M417.719 1380.24C351.479 1408.06 283.369 1398.02 236.939 1384.17C196.569 1372.13 165.379 1355.3 152.319 1347.64C158.569 1329.68 173.439 1282.62 182.089 1219.48C188.509 1172.64 190.119 1126.72 186.859 1082.97C185.699 1067.35 183.909 1052 181.509 1036.95C176.609 1006.22 169.139 976.73 159.159 948.78C157.569 944.31 155.909 939.88 154.189 935.49C164.219 924.52 192.969 894.9 234.079 868V868.01C227.699 892.88 222.809 930.82 239.189 963.15C245.819 976.23 255.259 987.16 267.449 995.86C267.949 996.22 268.499 996.56 269.089 996.86C269.859 1017.59 283.499 1081.23 415.889 1118.01C410.539 1131.39 405.259 1146.36 400.679 1162.55C389.979 1200.44 385.439 1237.11 387.189 1271.54C389.189 1310.95 399.449 1347.46 417.719 1380.24Z" fill="#3E9CF3"/>
<path d="M681.909 1219.48C675.489 1172.64 673.879 1126.72 677.139 1082.97C678.619 1063.13 681.099 1043.72 684.569 1024.8C690.309 993.58 698.739 963.7 709.809 935.49C699.779 924.52 671.029 894.9 629.909 867.99C636.299 892.86 641.189 930.81 624.809 963.15C618.179 976.23 608.739 987.16 596.549 995.86C596.039 996.23 595.489 996.56 594.899 996.87C594.239 1013.25 585.499 1056.6 516.319 1092.17C448.489 1127.04 424.309 1160.79 415.989 1183.07C398.199 1257.08 405.929 1322.25 438.999 1377.02C507.499 1408.79 578.929 1398.53 627.059 1384.17C667.429 1372.13 698.619 1355.3 711.679 1347.64C705.429 1329.68 690.559 1282.62 681.909 1219.48ZM452.389 1316.43C441.009 1316.43 431.779 1307.21 431.779 1295.83C431.779 1284.44 441.009 1275.22 452.389 1275.22C463.769 1275.22 472.999 1284.44 472.999 1295.83C472.999 1307.21 463.769 1316.43 452.389 1316.43Z" fill="#3E9CF3"/>
<path d="M536.4 994.911C536.4 994.911 539.68 995.801 544.36 996.481C544.35 996.491 544.34 996.491 544.33 996.491C544.33 996.491 549.55 997.641 556.82 998.641C556.71 998.791 556.58 998.961 556.44 999.151C556.31 999.321 556.17 999.501 556.02 999.701C555.68 1000.15 555.27 1000.69 554.79 1001.3C546.59 1011.76 522.62 1039.75 486.58 1059.72C466.49 1070.84 450.73 1088.37 441.35 1109.33C440.69 1110.8 440.03 1112.31 439.36 1113.84C433.44 1117.29 427.62 1120.13 422 1122.18C424.42 1117.96 464.6 1064.6 465.45 1063.25C480.87 1047.57 495.52 1028.17 509.34 1005.11L509.35 1005.1C540.26 968.191 569.33 918.171 576.67 856.041L574.51 847.671C575.4 844.481 576.18 841.621 576.84 839.131C586.25 843.221 595.3 847.711 603.96 852.441C605 855.141 606.6 859.531 608.28 865.121C602.39 898.451 584.26 971.881 536.4 994.911Z" fill="#3E9CF3"/>
<path d="M200.82 1479.76C205.09 1501.51 213.92 1533.66 231.08 1554.32C237.36 1561.88 247.53 1565 256.99 1562.33C267.44 1559.38 274.76 1550.02 275.14 1539.17C276.1 1511.53 275.99 1461.39 263.26 1452.6C253.74 1446.02 235.44 1447.63 220.51 1450.53C207.01 1453.17 198.17 1466.26 200.82 1479.76Z" fill="#3E9CF3"/>
<path d="M663.179 1479.76C658.909 1501.51 650.079 1533.66 632.919 1554.32C626.639 1561.88 616.469 1565 607.009 1562.33C596.559 1559.38 589.239 1550.02 588.859 1539.17C587.899 1511.53 588.009 1461.39 600.739 1452.6C610.259 1446.02 628.559 1447.63 643.489 1450.53C656.989 1453.17 665.829 1466.26 663.179 1479.76Z" fill="#3E9CF3"/>
<path d="M432 1454.58C410.58 1454.58 393.22 1453.91 393.22 1463.1C393.22 1472.29 410.58 1479.74 432 1479.74C453.42 1479.74 470.78 1472.29 470.78 1463.1C470.78 1453.91 453.42 1454.58 432 1454.58Z" fill="#3E9CF3"/>
<path d="M574.56 1000.13C573.96 1004.51 572.53 1010.64 569.2 1017.8C562.32 1032.6 545.98 1054.43 507.17 1074.38C477.93 1089.41 454.12 1105.38 435.83 1122.18C437.01 1119.32 438.19 1116.54 439.36 1113.84C440.03 1112.31 440.69 1110.8 441.35 1109.33C450.73 1088.37 466.49 1070.84 486.58 1059.72C522.62 1039.75 546.59 1011.76 554.79 1001.3C555.27 1000.69 555.68 1000.15 556.02 999.701C556.17 999.511 556.31 999.321 556.44 999.151C556.58 998.961 556.71 998.791 556.82 998.641C562.06 999.371 568.38 1000.03 574.56 1000.13Z" fill="#1278CC"/>
<path d="M409.67 1073.8C351.29 1054.96 313.91 1007.68 307.18 998.641C314.45 997.631 319.67 996.491 319.67 996.491C319.66 996.491 319.65 996.491 319.64 996.481C324.32 995.801 327.6 994.911 327.6 994.911C279.74 971.881 261.61 898.451 255.72 865.121C257.4 859.531 259 855.141 260.04 852.441C268.7 847.711 277.75 843.221 287.16 839.131C287.82 841.631 288.6 844.491 289.49 847.681L287.34 856.041C294.67 918.131 323.7 968.111 354.58 1005.02C371.71 1033.61 390.12 1056.59 409.67 1073.8Z" fill="#3E9CF3"/>
<path d="M319.64 996.48C319.65 996.49 319.66 996.49 319.67 996.49C319.67 996.49 314.45 997.631 307.18 998.641C306.45 997.661 306.08 997.13 306.08 997.13C310.84 997.49 315.73 997.06 319.64 996.48Z" stroke="#1278CC" stroke-miterlimit="10"/>
<path d="M509.34 1005.11C495.52 1028.17 480.87 1047.57 465.45 1063.25C464.6 1064.6 462.82 1067.49 460.4 1071.71C453.03 1074.41 445.3 1076.66 437.24 1078.33C439.62 1079.84 440.95 1080.61 440.95 1080.61C437.92 1080.27 434.94 1079.83 432 1079.32C429.06 1079.83 426.08 1080.27 423.05 1080.61C423.05 1080.61 424.38 1079.84 426.76 1078.33C420.88 1077.11 415.18 1075.59 409.67 1073.8C390.12 1056.59 371.71 1033.61 354.58 1005.02C384.82 1041.16 416.84 1064.77 432 1074.91C447.15 1064.78 479.12 1041.2 509.34 1005.11Z" stroke="#1278CC" stroke-miterlimit="10"/>
<path d="M557.92 997.13C557.92 997.13 557.55 997.661 556.82 998.641C549.55 997.641 544.33 996.49 544.33 996.49C544.34 996.49 544.35 996.49 544.36 996.48H544.37C548.28 997.06 553.16 997.49 557.92 997.13Z" stroke="#1278CC" stroke-miterlimit="10"/>
<path d="M454.41 1322.89C467.377 1322.89 477.89 1312.38 477.89 1299.41C477.89 1286.44 467.377 1275.93 454.41 1275.93C441.442 1275.93 430.93 1286.44 430.93 1299.41C430.93 1312.38 441.442 1322.89 454.41 1322.89Z" fill="#1278CC"/>
<path d="M387.189 1271.54C389.189 1310.95 399.449 1347.46 417.719 1380.24C351.479 1408.06 283.369 1398.02 236.939 1384.17C196.569 1372.13 165.379 1355.3 152.319 1347.64C158.569 1329.68 173.439 1282.62 182.089 1219.48C188.509 1172.64 190.119 1126.72 186.859 1082.97C185.699 1067.35 183.909 1052 181.509 1036.95C224.709 1172.52 190.349 1331.83 190.349 1331.83C270.569 1377.22 369.959 1351 369.959 1351C340.219 1259.43 397.639 1124.83 397.639 1124.83C264.889 1095.87 258.039 1005.1 258.039 1005.1C193.269 953.141 233.379 869.471 234.079 868.011C227.699 892.881 222.809 930.821 239.189 963.151C245.819 976.231 255.259 987.161 267.449 995.861C267.949 996.221 268.499 996.561 269.089 996.861C269.859 1017.59 283.499 1081.23 415.889 1118.01C410.539 1131.39 405.259 1146.36 400.679 1162.55C389.979 1200.44 385.439 1237.11 387.189 1271.54Z" fill="#1278CC"/>
<path d="M711.679 1347.64C698.619 1355.3 667.429 1372.13 627.059 1384.17C578.929 1398.53 507.499 1408.79 438.999 1377.02C405.929 1322.25 398.199 1257.08 415.989 1183.07C424.309 1160.79 448.489 1127.04 516.319 1092.17C585.499 1056.6 594.239 1013.25 594.899 996.87C595.489 996.56 596.039 996.23 596.549 995.86C608.739 987.16 618.179 976.23 624.809 963.15C641.189 930.81 636.299 892.86 629.909 867.99C669.949 967.63 602.779 1005.02 602.779 1005.02C594.959 1122.18 448.219 1100.79 426.699 1191.35C401.629 1296.81 461.519 1347.87 461.519 1347.87C554.649 1377.22 672.829 1328.7 672.829 1328.7C643.089 1149.1 684.569 1024.8 684.569 1024.8C681.099 1043.72 678.619 1063.13 677.139 1082.97C673.879 1126.72 675.489 1172.64 681.909 1219.48C690.559 1282.62 705.429 1329.68 711.679 1347.64Z" fill="#1278CC"/>
<path d="M234.079 868V868.01C234.079 868.01 187.059 908.52 159.159 948.78C157.569 944.31 155.909 939.88 154.189 935.49C164.219 924.52 192.969 894.9 234.079 868Z" fill="#88CCFF"/>
<path d="M629.91 867.99V868C629.91 868 676.93 908.51 704.83 948.77C706.42 944.3 708.08 939.87 709.8 935.48C699.77 924.51 671.02 894.89 629.91 867.99Z" fill="#88CCFF"/>
<path d="M733.189 1348.29C732.979 1347.75 712.209 1293.74 701.649 1216.22C691.959 1145.07 689.119 1038.92 730.649 937.26C732.049 933.83 731.439 929.91 729.059 927.06C726.519 924.02 665.699 852.16 573.589 816.16C570.879 815.1 567.849 815.28 565.279 816.63C562.709 817.99 560.859 820.4 560.209 823.23C559.799 825.03 518.699 1000.02 431.999 1066.28C345.299 1000.02 304.199 825.03 303.789 823.23C303.139 820.4 301.289 817.99 298.719 816.63C296.149 815.27 293.119 815.1 290.409 816.16C198.299 852.16 137.489 924.02 134.939 927.06C132.559 929.9 131.949 933.83 133.349 937.26C174.879 1038.92 172.039 1145.07 162.349 1216.22C151.789 1293.73 131.019 1347.75 130.809 1348.28C129.099 1352.67 130.689 1357.66 134.619 1360.26C134.989 1360.51 137.379 1362.06 141.489 1364.5C141.479 1377.43 142.259 1409.78 149.089 1451.45C157.169 1500.78 175.669 1572.86 217.899 1636.07C219.359 1638.26 221.629 1639.79 224.219 1640.31C226.179 1640.71 253.929 1646.23 289.129 1646.23C314.629 1646.23 344.029 1643.33 370.329 1633.49C372.919 1632.52 374.989 1630.52 376.059 1627.97C377.219 1625.19 402.929 1563.17 412.449 1511.03C418.509 1512.16 425.029 1512.81 431.999 1512.81C438.969 1512.81 445.489 1512.16 451.549 1511.03C461.069 1563.16 486.779 1625.19 487.939 1627.97C488.999 1630.52 491.079 1632.52 493.669 1633.49C519.979 1643.33 549.379 1646.23 574.869 1646.23C610.059 1646.23 637.819 1640.71 639.779 1640.31C642.359 1639.78 644.629 1638.26 646.099 1636.07C688.329 1572.86 706.829 1500.78 714.909 1451.45C721.739 1409.78 722.519 1377.43 722.509 1364.5C726.619 1362.06 729.009 1360.5 729.379 1360.26C733.309 1357.66 734.889 1352.68 733.189 1348.29ZM465.449 1063.25C495.239 1032.96 522.179 988.74 545.819 931.22C562.109 891.56 572.249 856.48 576.839 839.14C586.259 843.23 595.299 847.72 603.959 852.45C608.919 865.31 626.259 916.14 606.929 954.19C596.099 975.51 575.039 989.75 544.329 996.51C544.329 996.51 559.829 999.9 574.559 1000.14C573.969 1004.52 572.539 1010.65 569.209 1017.82C562.329 1032.62 545.979 1054.45 507.179 1074.4C477.939 1089.43 454.129 1105.4 435.839 1122.2C449.109 1089.9 462.569 1067.83 465.449 1063.25ZM260.039 852.44C268.699 847.71 277.749 843.22 287.159 839.13C291.739 856.47 301.879 891.56 318.179 931.21C348.949 1006.12 385.329 1058.49 426.309 1086.87C427.169 1087.47 428.099 1087.91 429.069 1088.21C427.359 1091.74 425.599 1095.49 423.809 1099.45C351.129 1079.67 318.289 1052.24 303.499 1032.28C293.519 1018.81 290.359 1007.2 289.419 1000.13C304.159 999.9 319.679 996.5 319.679 996.5C288.969 989.74 267.899 975.5 257.079 954.18C237.739 916.13 255.079 865.3 260.039 852.44ZM182.089 1219.48C188.509 1172.65 190.109 1126.72 186.859 1082.97C182.949 1030.37 171.959 980.79 154.189 935.5C164.219 924.52 192.969 894.91 234.089 867.99C227.699 892.86 222.809 930.81 239.189 963.15C245.819 976.23 255.259 987.16 267.439 995.86C267.949 996.22 268.499 996.55 269.079 996.86C269.859 1017.58 283.489 1081.22 415.889 1118.01C410.529 1131.38 405.249 1146.36 400.679 1162.55C389.979 1200.44 385.439 1237.11 387.189 1271.54C389.189 1310.95 399.449 1347.45 417.729 1380.23C351.479 1408.05 283.369 1398.01 236.939 1384.16C196.569 1372.12 165.379 1355.29 152.319 1347.63C158.569 1329.68 173.439 1282.62 182.089 1219.48ZM695.099 1448.7C687.469 1495.03 670.299 1562.21 631.789 1621.45C615.659 1624.18 553.869 1632.88 504.759 1616.23C498.809 1601.35 478.409 1548.5 470.869 1505.42C499.079 1494.02 513.029 1473.49 513.029 1473.49C513.029 1473.49 477.979 1492.84 432.009 1492.84C386.039 1492.84 350.989 1473.49 350.989 1473.49C350.989 1473.49 364.939 1494.02 393.149 1505.42C385.609 1548.5 365.209 1601.35 359.259 1616.23C310.139 1632.89 248.359 1624.18 232.229 1621.45C193.719 1562.21 176.549 1495.03 168.919 1448.7C163.779 1417.5 162.169 1391.39 161.699 1375.55C178.509 1384.08 202.279 1394.66 230.659 1403.17C263.789 1413.11 296.309 1418.08 327.319 1418.05C364.659 1417.97 399.859 1410.5 432.019 1395.83C464.179 1410.49 499.379 1417.97 536.719 1418.05C536.929 1418.05 537.129 1418.05 537.339 1418.05C568.149 1418.05 600.469 1413.05 633.379 1403.17C661.749 1394.66 685.529 1384.08 702.339 1375.55C701.839 1391.39 700.229 1417.5 695.099 1448.7ZM627.059 1384.17C578.929 1398.52 507.499 1408.79 438.999 1377.02C405.929 1322.24 398.199 1257.07 415.989 1183.06C424.309 1160.79 448.479 1127.03 516.319 1092.16C585.499 1056.6 594.239 1013.25 594.899 996.87C595.489 996.56 596.049 996.22 596.559 995.86C608.739 987.15 618.189 976.23 624.809 963.15C641.189 930.81 636.299 892.86 629.909 867.99C671.029 894.9 699.789 924.52 709.809 935.5C692.039 980.79 681.049 1030.37 677.139 1082.97C673.889 1126.72 675.489 1172.64 681.909 1219.48C690.559 1282.62 705.429 1329.68 711.679 1347.65C698.619 1355.3 667.429 1372.13 627.059 1384.17Z" fill="#173485"/>
<path d="M452.389 1316.44C463.772 1316.44 472.999 1307.21 472.999 1295.83C472.999 1284.45 463.772 1275.22 452.389 1275.22C441.007 1275.22 431.779 1284.45 431.779 1295.83C431.779 1307.21 441.007 1316.44 452.389 1316.44Z" fill="#173485"/>
<path d="M610.06 1043.57L590.52 1037.7L589.05 1052.31L616.48 1062.61C616.48 1062.61 627.18 1041.22 630.44 1035.87L636.05 1027.39C636.04 1027.39 620.99 1033.78 610.06 1043.57Z" fill="#1278CC"/>
<path d="M615.789 1062.61L610.059 1093.93L606.299 1114.52C574.479 1113.48 548.389 1130.11 548.389 1130.11C535.909 1107.16 521.379 1088.76 508.569 1075.04C490.039 1055.2 475.089 1045.13 475.089 1045.13C550.119 1033.42 615.789 1062.61 615.789 1062.61Z" fill="white"/>
<path d="M610.059 1093.93L606.299 1114.52C574.479 1113.48 548.389 1130.11 548.389 1130.11C535.909 1107.16 521.379 1088.76 508.569 1075.04C558.169 1074.91 598.549 1089.36 610.059 1093.93Z" fill="#BDBDBD"/>
<path d="M613.78 1070.93C552.88 1040.73 486.36 1055.32 485.69 1055.47L481.68 1037.92C484.64 1037.24 554.97 1021.67 621.78 1054.8L613.78 1070.93Z" fill="#4A5D6D"/>
<path d="M709.1 954.811H708.43C626.53 985.931 605.91 1111.13 605.91 1111.13L545.26 1127.17C528.83 1083.34 487.35 1046.95 487.35 1046.95C367.22 1027.04 297.18 1089.6 297.18 1089.6L231.83 1032.47C231.83 1032.47 225.57 1003.51 203.66 980.431C181.75 957.341 155.58 956.5 155.58 956.5L135.97 976.25C90.0597 1057.12 103.1 1196.95 189.71 1245.47C276.32 1293.99 433.88 1204.77 433.88 1204.77C629.01 1336.25 747.45 1207.38 752.66 1109.39C757.87 1011.41 709.1 954.811 709.1 954.811Z" fill="#3E9CF3"/>
<path d="M154.19 935.491L159.79 950.641C159.79 950.641 129.83 990.401 125.39 1023.86C125.39 1023.86 142.83 980.161 168.1 955.801C170.69 953.301 171.75 949.611 170.85 946.121L167.26 932.101L154.19 935.491Z" fill="#88CCFF"/>
<path d="M709.809 935.49L705.079 948.27C705.079 948.27 722.759 972.61 734.519 1023.87C734.519 1023.87 721.169 980.17 695.899 955.81C693.309 953.31 692.249 949.62 693.149 946.13L696.739 932.11L709.809 935.49Z" fill="#88CCFF"/>
<path d="M382.87 1226.57L413.59 1213.85L414.87 1235.67C536.96 1152.04 569.13 1128.35 569.13 1128.35L535.22 1125.58C535.22 1125.58 352.74 1230.48 270.17 1226.18C187.6 1221.88 125.48 1152.18 119.96 1092.33C119.96 1092.33 112.48 1203.09 200.52 1249.26L188.39 1268.04C188.39 1268.04 251.4 1338.29 379.52 1259.32L382.87 1226.57Z" fill="#1278CC"/>
<path d="M424.739 1224.61C424.739 1224.61 542.129 1325.18 673.219 1268.83L679.479 1246.13C679.479 1246.13 753.169 1185.93 745.999 1097.83C745.999 1097.83 709.999 1211.7 629.779 1228.53C549.559 1245.36 472.999 1194.58 472.999 1194.58L424.739 1224.61Z" fill="#1278CC"/>
<path d="M231.829 1032.48C231.829 1032.48 265.289 1079.24 269.589 1118.18L301.869 1085.11L312.959 1070.18C312.959 1070.17 292.869 1045.2 231.829 1032.48Z" fill="#1278CC"/>
<path d="M636.039 1027.39L598.209 1106.69L647.779 1124.43C621.959 1081.65 636.039 1027.39 636.039 1027.39Z" fill="#1278CC"/>
<path d="M472.999 1042.74C472.999 1042.74 353.909 1035.8 267.039 1122.18L258.239 1136.57C258.239 1136.57 364.589 1053.7 494.389 1064.33L472.999 1042.74Z" fill="#88CCFF"/>
<path d="M657.699 1132.96C638.129 1118.53 610.739 1113.48 610.739 1113.48L563.069 1130.44C620.069 1117.42 668.529 1146.74 668.529 1146.74L657.699 1132.96Z" fill="#88CCFF"/>
<path d="M727.329 946.581L709.149 954.791C748.019 1040.83 752.899 1119.86 722.969 1177.29C702.669 1216.24 667.719 1242.15 624.539 1250.26C550.969 1264.08 474.069 1221.85 444.349 1203C457.719 1195.05 470.609 1187.14 482.939 1179.57C532.109 1149.35 574.699 1123.18 607.089 1120.45C619.999 1120.52 653.969 1127.93 668.519 1146.73C668.519 1146.73 655.609 1109.39 618.619 1103.25C621.759 1062.66 636.039 1027.38 636.039 1027.38C636.039 1027.38 602.379 1054.79 598.699 1101.35C584.499 1103.57 569.289 1108.99 553.089 1116.58C524.729 1060.18 486.899 1036.01 485.219 1034.95L483.269 1033.73L480.979 1033.48C398.689 1024.66 340.709 1050.88 306.559 1074.42C304.979 1075.51 303.459 1076.6 301.949 1077.69C273.289 1044.8 231.819 1032.47 231.819 1032.47C232.189 1032.68 259.819 1060.11 286.249 1090.12C262.939 1110.25 258.239 1136.56 258.239 1136.56C258.399 1136.31 280.239 1111.83 315.369 1090.58C362.909 1061.82 416.229 1047.16 476.389 1053.12C483.789 1058.36 512.699 1080.81 535.229 1125.57C515.619 1136.02 494.689 1148.88 472.479 1162.53C436.179 1184.83 395.039 1210.11 350.969 1230.11C292.789 1256.5 241.339 1261.08 202.179 1243.34C168.409 1228.05 144.079 1196.54 129.889 1149.71C112.669 1092.9 120.499 1043.52 130.099 1012.11C140.589 977.791 155.439 956.721 155.579 956.511L147.439 950.701L139.309 944.871C138.639 945.811 122.709 968.271 111.209 1005.46C100.619 1039.7 91.9493 1093.53 110.739 1155.51C126.679 1208.1 154.669 1243.78 193.919 1261.56C212.159 1269.82 232.499 1273.93 254.539 1273.93C286.339 1273.93 321.669 1265.36 359.219 1248.32C382.119 1237.93 404.109 1226.23 425.029 1214.27C434.619 1220.84 456.209 1234.69 484.859 1247.36C523.159 1264.3 560.459 1272.94 594.549 1272.94C606.179 1272.94 617.439 1271.93 628.239 1269.91C677.579 1260.64 717.519 1231.03 740.709 1186.52C773.539 1123.54 768.779 1038.33 727.329 946.581Z" fill="#173485"/>
<path d="M478.33 783.541C458.85 778.591 439.99 788.671 432.03 793.821V793.841C432.02 793.841 432.02 793.831 432.01 793.831C432 793.831 432 793.841 431.99 793.841V793.821C424.03 788.671 405.17 778.591 385.69 783.541C360.01 790.071 362.95 819.551 362.95 819.551C362.95 819.551 382.53 848.381 432.01 848.381C481.49 848.381 501.07 819.551 501.07 819.551C501.07 819.551 504.01 790.061 478.33 783.541Z" fill="#D65B5B"/>
<path d="M471.409 791.981C454.839 787.771 438.799 796.341 432.019 800.721V800.741C432.009 800.741 432.009 800.731 431.999 800.731C431.989 800.731 431.989 800.741 431.979 800.741V800.721C425.209 796.341 409.169 787.761 392.589 791.981C387.129 793.371 383.189 795.981 380.349 799.111C371.179 809.241 373.229 825.191 384.329 833.171C393.569 839.821 408.979 847.141 431.989 847.151C454.999 847.151 470.409 839.821 479.649 833.171C490.749 825.191 492.809 809.241 483.629 799.111C480.809 795.971 476.879 793.371 471.409 791.981Z" fill="#F89C9B"/>
<path d="M836.61 610.61C836.27 600.65 835.11 591.72 833.56 583.94C826.84 550.17 812.11 530.95 811.96 530.76C810.06 528.32 809.26 525.19 809.76 522.14C809.84 521.68 817.35 475.13 822.58 410.9C826.16 366.95 829.2 307.8 826.76 248.73C826.76 248.72 826.76 248.72 826.76 248.72C825.92 228.38 824.44 208.06 822.1 188.37C816.36 139.96 804.89 100.04 789.2 71.5101C789.2 71.5101 789.19 71.5001 789.19 71.4901C786.83 67.2001 784.37 63.1701 781.83 59.4101C781.82 59.4001 781.82 59.3901 781.81 59.3901C769.16 40.7001 754.29 28.6101 737.82 24.3501C691.1 12.2601 627.67 59.0701 554.21 159.78C562.13 163.22 569.14 166.87 575.33 170.57C607.68 189.94 617.5 210.8 617.5 210.8L617.44 210.74C617.27 210.56 617.11 210.39 616.95 210.22C614.25 207.48 602.57 196.56 578.03 185.72C551.79 174.14 505.15 160.32 432.01 160.32C358.87 160.32 312.24 174.14 286 185.73C261.73 196.44 250.04 207.25 247.18 210.13C246.95 210.36 246.73 210.6 246.51 210.84C246.5 210.85 246.5 210.85 246.5 210.85H246.49L246.52 210.81C246.52 210.81 256.34 189.96 288.7 170.58C294.88 166.88 301.89 163.23 309.82 159.79C236.36 59.0801 172.92 12.2701 126.21 24.3601C109.72 28.6301 94.8497 40.7201 82.1997 59.4201C79.6497 63.1801 77.1997 67.2101 74.8397 71.5001C74.8297 71.5201 74.8297 71.5201 74.8297 71.5201C59.1397 100.05 47.6797 139.97 41.9297 188.38C39.5897 208.07 38.1097 228.39 37.2697 248.73V248.74C34.8297 307.8 37.8697 366.95 41.4497 410.9C46.6897 475.13 54.1997 521.68 54.2697 522.14C54.7597 525.19 53.9697 528.32 52.0697 530.76C51.9197 530.95 37.1897 550.17 30.4697 583.94C28.9197 591.71 27.7597 600.63 27.4197 610.58C26.3497 641.13 33.0097 681.38 60.0897 727.89C144.25 872.47 329.21 894.06 432.01 894.06H432.04C534.83 894.06 719.8 872.48 803.96 727.89C831 681.4 837.68 641.16 836.61 610.61ZM126.61 298.3C127.05 297.12 147.76 242.64 180.68 218.76C183.99 216.36 185.2 212.11 183.64 208.44C177.73 194.55 163.99 170.68 138.44 166.89C115.88 163.55 103.03 174.75 99.8797 177.96C99.8397 178 99.7897 178.05 99.7497 178.09C99.7097 178.13 99.6697 178.17 99.6297 178.21C99.5697 178.27 99.5097 178.33 99.4697 178.38C99.4297 178.42 99.3897 178.46 99.3597 178.5C99.1997 178.68 99.1197 178.77 99.1197 178.77C99.1197 178.77 107.96 151.14 140.07 155.89C170.99 160.47 187.05 188.05 193.87 204.08C197.48 212.56 194.74 222.3 187.21 227.76C185.67 228.88 184.13 230.06 182.61 231.29C182.61 231.29 182.6 231.3 182.59 231.31C153.23 254.92 127.3 297.17 126.61 298.3ZM430.68 864.41C430.52 864.41 430.36 864.41 430.2 864.4C429.78 864.4 429.35 864.39 428.94 864.39C348.32 862.95 328.87 783.31 328.87 783.31C270.77 770.46 265.4 729.08 265.6 712.87V712.8C265.66 708.73 266.06 706.28 266.06 706.28C266.68 710.3 268.09 714.35 270.13 718.34C270.13 718.34 270.13 718.34 270.13 718.35C282.83 743.11 320.06 765.29 346.43 761.42C377.04 756.92 425.42 730.66 425.42 730.66L432.01 705.56V705.42L432.03 705.49L432.05 705.42V705.56L438.63 730.66C438.63 730.66 487.01 756.92 517.63 761.42C544 765.3 581.24 743.12 593.93 718.35C593.93 718.34 593.94 718.34 593.94 718.34C595.98 714.36 597.38 710.32 598.01 706.29C598.01 706.29 598.43 708.82 598.47 712.99C598.65 729.27 593.18 770.5 535.19 783.33C535.19 783.33 515.74 862.97 435.12 864.41L433.86 864.42C433.26 864.44 432.66 864.44 432.06 864.43H431.19C431 864.42 430.84 864.42 430.68 864.41ZM524.45 485.86C524.45 435.51 557.99 394.69 599.37 394.69C640.75 394.69 674.29 435.51 674.29 485.86C674.29 536.21 640.75 577.02 599.37 577.02C557.99 577.02 524.45 536.21 524.45 485.86ZM482.36 592.99C493.81 599.52 501.16 608.7 502.45 620C502.59 621.19 502.66 622.4 502.66 623.63C502.66 649.58 472.09 693.19 432.04 693.22H432C411.97 693.21 394.32 682.3 381.67 668.14C369.02 653.99 361.38 636.6 361.38 623.62C361.38 622.39 361.45 621.17 361.59 619.99C364.31 596.2 393.85 581.81 432 581.8H432.04C452.06 581.82 469.71 585.79 482.36 592.99ZM681.42 231.29C679.89 230.06 678.36 228.88 676.82 227.76C669.29 222.29 666.55 212.56 670.16 204.08C676.98 188.05 693.04 160.48 723.96 155.89C756.08 151.14 764.91 178.77 764.91 178.77C764.91 178.77 764.69 178.51 764.25 178.05C764.21 178.01 764.17 177.96 764.12 177.92C764.08 177.87 764.03 177.83 763.98 177.78C763.94 177.74 763.89 177.69 763.84 177.64C760.19 174.08 747.45 163.67 725.6 166.91C700.05 170.7 686.32 194.57 680.4 208.46C678.83 212.14 680.05 216.38 683.36 218.78C716.28 242.66 736.98 297.14 737.43 298.32C736.73 297.19 710.81 254.94 681.45 231.33C681.43 231.29 681.42 231.29 681.42 231.29ZM264.66 394.69C306.03 394.69 339.58 435.51 339.58 485.86C339.58 536.21 306.04 577.02 264.66 577.02C223.28 577.02 189.74 536.21 189.74 485.86C189.74 435.51 223.28 394.69 264.66 394.69Z" fill="#F32508"/>
<path d="M368.619 373.491C354.499 396.761 322.069 386.441 291.149 367.691C260.229 348.931 244.749 321.231 258.869 297.951C272.989 274.681 309.499 271.011 340.409 289.771C371.329 308.521 382.739 350.211 368.619 373.491Z" fill="white"/>
<path d="M118.999 165.61C112.499 167.93 107.389 171.4 103.969 174.19C108.439 170.03 113.549 167.24 118.999 165.61Z" fill="white"/>
<path d="M157.829 210.861C159.459 215.121 158.479 219.961 155.269 223.211C131.009 247.801 111.389 290.651 111.389 290.651C111.389 290.651 103.759 314.641 84.6692 316.611C81.0592 287.001 79.6492 245.741 89.3492 202.081C91.5992 191.961 95.3792 184.111 100.189 178.221C134.369 161.461 151.779 195.101 157.829 210.861Z" fill="white"/>
<path d="M188.05 207.511L182.93 195.921C185.17 200.071 186.84 204.081 188.05 207.511Z" fill="white"/>
<path d="M190.979 217.97C189.779 218.91 188.589 219.88 187.399 220.87L190.249 214.7C190.769 216.76 190.979 217.97 190.979 217.97Z" fill="white"/>
<path d="M284.329 760.771C283.529 759.961 282.759 759.141 282.019 758.311C282.749 759.141 283.519 759.961 284.329 760.771ZM282.019 758.311C281.289 757.481 280.579 756.651 279.899 755.811C280.569 756.651 281.279 757.481 282.019 758.311ZM274.829 748.471C273.959 746.991 273.159 745.511 272.439 744.041C273.159 745.511 273.949 746.991 274.829 748.471ZM807.799 598.691C791.509 595.901 770.139 597.971 743.729 612.061C675.179 648.621 602.279 688.011 554.839 645.351C507.399 602.701 480.419 539.591 431.989 539.591C383.559 539.591 356.579 602.701 309.139 645.351C261.699 688.001 188.799 648.611 120.249 612.061C93.8593 597.981 72.5092 595.911 56.2192 598.691C54.0492 618.141 54.9993 642.681 61.5593 673.431C86.3693 789.631 268.059 877.361 432.009 877.331C595.959 877.361 777.659 789.631 802.459 673.431C809.029 642.671 809.969 618.141 807.799 598.691ZM435.099 864.391C434.089 864.411 433.069 864.421 432.039 864.411H431.169C430.419 864.411 429.679 864.401 428.939 864.391C428.769 864.391 428.599 864.381 428.429 864.381C427.969 864.371 427.509 864.361 427.059 864.341C426.509 864.321 425.959 864.301 425.419 864.281C425.049 864.261 424.669 864.241 424.309 864.221C423.959 864.201 423.609 864.181 423.259 864.151C422.689 864.121 422.119 864.081 421.559 864.031C420.959 863.991 420.359 863.941 419.769 863.871C416.839 863.591 414.009 863.201 411.259 862.711C410.879 862.641 410.499 862.581 410.129 862.501C408.259 862.141 406.429 861.751 404.629 861.311C403.759 861.091 402.909 860.871 402.059 860.641C401.169 860.401 400.289 860.151 399.419 859.871C398.589 859.621 397.759 859.361 396.949 859.091C394.939 858.421 392.999 857.691 391.099 856.921C390.149 856.541 389.219 856.141 388.299 855.721C387.839 855.511 387.389 855.311 386.929 855.101C386.479 854.891 386.029 854.681 385.579 854.461C385.129 854.241 384.689 854.021 384.249 853.801C383.269 853.311 382.309 852.801 381.369 852.281C381.039 852.101 380.709 851.921 380.379 851.731C375.609 849.041 371.249 846.031 367.269 842.821C367.039 842.631 366.799 842.441 366.569 842.251C365.959 841.751 365.359 841.241 364.769 840.731C364.489 840.501 364.219 840.261 363.949 840.011C363.559 839.671 363.179 839.331 362.799 838.981C362.519 838.731 362.239 838.471 361.969 838.211C361.289 837.581 360.629 836.951 359.969 836.301C359.739 836.071 359.499 835.841 359.269 835.611C358.599 834.941 357.939 834.261 357.289 833.571C356.999 833.261 356.709 832.951 356.429 832.651C355.869 832.051 355.319 831.451 354.789 830.841C353.679 829.591 352.619 828.331 351.589 827.061C351.329 826.751 351.079 826.431 350.839 826.121C350.579 825.811 350.339 825.491 350.099 825.181C349.859 824.861 349.609 824.551 349.379 824.231C349.139 823.911 348.899 823.601 348.669 823.291C348.189 822.651 347.719 822.011 347.259 821.371C347.049 821.071 346.839 820.771 346.629 820.471C346.189 819.841 345.759 819.221 345.349 818.601C345.159 818.321 344.969 818.041 344.789 817.761C344.359 817.111 343.939 816.461 343.529 815.811C343.329 815.501 343.139 815.191 342.949 814.891C342.569 814.271 342.189 813.661 341.829 813.051C341.649 812.741 341.469 812.441 341.299 812.141C340.589 810.931 339.919 809.741 339.279 808.561C339.119 808.271 338.959 807.981 338.809 807.691C338.649 807.381 338.479 807.081 338.329 806.771C338.179 806.501 338.039 806.231 337.909 805.961C337.469 805.111 337.049 804.261 336.639 803.441C336.499 803.161 336.369 802.891 336.239 802.621C335.589 801.261 334.979 799.951 334.429 798.681C334.319 798.421 334.209 798.171 334.099 797.931C333.379 796.261 332.739 794.681 332.179 793.241C332.099 793.021 332.009 792.811 331.939 792.601C331.899 792.511 331.869 792.411 331.829 792.321C331.769 792.151 331.709 791.991 331.649 791.831C331.349 791.021 331.079 790.261 330.829 789.551C330.739 789.271 330.639 789.011 330.549 788.741C330.389 788.271 330.239 787.821 330.109 787.401C330.039 787.181 329.969 786.981 329.909 786.781C329.449 785.331 329.159 784.281 329.009 783.741C328.979 783.621 328.949 783.521 328.929 783.451C328.899 783.341 328.889 783.291 328.889 783.291C307.909 778.651 293.809 770.291 284.359 760.751C283.559 759.941 282.789 759.121 282.049 758.291C281.319 757.461 280.609 756.631 279.929 755.791C279.759 755.581 279.589 755.371 279.429 755.161C277.699 752.951 276.189 750.711 274.859 748.461C273.989 746.981 273.189 745.501 272.469 744.031C270.299 739.591 268.789 735.201 267.749 731.061C267.589 730.411 267.429 729.761 267.289 729.131C265.869 722.681 265.559 716.971 265.609 712.871C265.659 708.761 266.069 706.271 266.069 706.271C266.689 710.301 268.099 714.351 270.139 718.331C270.139 718.331 270.139 718.341 270.149 718.341C270.689 719.411 271.289 720.481 271.929 721.531C272.139 721.891 272.359 722.241 272.579 722.591C272.599 722.631 272.629 722.671 272.649 722.711C272.849 723.021 273.049 723.341 273.259 723.641C273.329 723.741 273.389 723.841 273.459 723.941C273.629 724.191 273.799 724.441 273.969 724.691C274.209 725.031 274.449 725.391 274.699 725.731C274.949 726.071 275.199 726.421 275.459 726.761C275.669 727.041 275.879 727.321 276.089 727.591C276.139 727.661 276.199 727.721 276.249 727.791C276.489 728.101 276.729 728.411 276.979 728.711C277.279 729.081 277.589 729.461 277.899 729.821C278.179 730.161 278.469 730.491 278.759 730.831C279.339 731.501 279.929 732.161 280.549 732.821C280.759 733.041 280.959 733.261 281.169 733.481C281.349 733.671 281.539 733.861 281.719 734.051C282.459 734.811 283.219 735.561 283.989 736.311C287.479 739.651 291.329 742.811 295.419 745.661C295.729 745.891 296.039 746.101 296.359 746.321C297.659 747.221 298.989 748.081 300.339 748.911C300.789 749.191 301.239 749.471 301.699 749.741C302.179 750.021 302.659 750.311 303.129 750.581C304.109 751.141 305.089 751.691 306.089 752.221C306.559 752.461 307.029 752.711 307.509 752.951C307.979 753.191 308.459 753.431 308.929 753.661C309.489 753.931 310.049 754.201 310.609 754.471C310.979 754.641 311.349 754.811 311.719 754.981C312.299 755.241 312.869 755.491 313.449 755.741C313.929 755.951 314.419 756.151 314.909 756.351C314.929 756.361 314.939 756.361 314.949 756.371C315.449 756.581 315.949 756.781 316.459 756.971C317.089 757.211 317.719 757.451 318.349 757.671C318.589 757.761 318.829 757.851 319.079 757.931C319.379 758.041 319.679 758.141 319.979 758.241C320.359 758.361 320.729 758.481 321.099 758.611C321.569 758.761 322.029 758.901 322.499 759.041C322.969 759.181 323.429 759.321 323.899 759.451C323.929 759.461 323.969 759.471 324.009 759.481C324.489 759.621 324.979 759.751 325.469 759.871C325.509 759.881 325.559 759.891 325.599 759.901C326.049 760.021 326.499 760.121 326.939 760.231C326.999 760.241 327.049 760.251 327.109 760.271C327.579 760.381 328.039 760.481 328.509 760.581C328.919 760.671 329.329 760.751 329.739 760.821C330.889 761.041 332.019 761.221 333.149 761.371C333.579 761.431 333.999 761.481 334.419 761.531C334.779 761.571 335.139 761.611 335.499 761.641C335.729 761.671 335.959 761.681 336.199 761.701C336.489 761.721 336.769 761.741 337.059 761.761C337.199 761.771 337.349 761.781 337.489 761.781C337.799 761.801 338.109 761.811 338.419 761.821C341.179 761.931 343.869 761.791 346.449 761.411C377.059 756.911 425.439 730.651 425.439 730.651L432.029 705.551V705.411L432.049 705.481L432.069 705.411V705.551L438.649 730.651C438.649 730.651 487.029 756.911 517.649 761.411C520.229 761.791 522.919 761.921 525.679 761.821C525.989 761.811 526.299 761.801 526.609 761.781C526.749 761.771 526.899 761.771 527.039 761.761C527.329 761.741 527.609 761.721 527.899 761.701C528.129 761.681 528.369 761.671 528.599 761.641C528.959 761.611 529.319 761.571 529.679 761.531C530.099 761.491 530.529 761.431 530.949 761.371C532.079 761.221 533.209 761.041 534.359 760.821C534.769 760.741 535.179 760.661 535.589 760.581C536.059 760.491 536.519 760.381 536.989 760.271C537.049 760.251 537.099 760.241 537.159 760.231C537.599 760.121 538.049 760.021 538.499 759.901C538.539 759.891 538.589 759.881 538.629 759.871C539.109 759.751 539.599 759.621 540.089 759.481C540.129 759.471 540.159 759.461 540.199 759.451C540.669 759.321 541.129 759.181 541.599 759.041C542.089 758.891 542.589 758.741 543.079 758.581C543.449 758.461 543.809 758.341 544.179 758.221C544.459 758.131 544.739 758.041 545.019 757.931C545.259 757.851 545.499 757.761 545.749 757.671C546.379 757.451 547.009 757.211 547.639 756.971C548.139 756.781 548.639 756.581 549.139 756.371C549.649 756.171 550.149 755.961 550.639 755.751C551.139 755.531 551.639 755.321 552.139 755.091C552.619 754.871 553.109 754.651 553.589 754.421C553.619 754.411 553.649 754.391 553.679 754.381C554.159 754.151 554.639 753.921 555.109 753.691C555.599 753.451 556.089 753.201 556.579 752.951C557.049 752.711 557.529 752.461 557.999 752.221C558.039 752.191 558.079 752.171 558.129 752.151C558.589 751.911 559.049 751.661 559.509 751.401C559.989 751.131 560.479 750.861 560.959 750.581C561.489 750.271 562.029 749.961 562.559 749.651C562.959 749.411 563.359 749.171 563.759 748.921C565.249 748.001 566.719 747.041 568.159 746.041C568.569 745.761 568.969 745.481 569.369 745.191C569.789 744.901 570.199 744.601 570.599 744.301C571.309 743.781 571.999 743.251 572.689 742.721C572.929 742.531 573.179 742.341 573.419 742.151C576.719 739.541 579.819 736.741 582.629 733.811C582.939 733.491 583.249 733.161 583.549 732.831C583.859 732.501 584.159 732.171 584.459 731.841C586.929 729.091 589.149 726.241 591.039 723.331C591.199 723.091 591.359 722.841 591.509 722.591C591.709 722.281 591.899 721.971 592.089 721.651C592.749 720.551 593.369 719.451 593.939 718.341C595.979 714.361 597.389 710.301 598.009 706.281C598.009 706.281 598.429 708.811 598.469 712.981V713.001C598.639 729.291 593.149 770.501 535.189 783.311C535.189 783.311 535.179 783.361 535.149 783.471C535.129 783.541 535.109 783.641 535.069 783.761C534.929 784.301 534.639 785.351 534.169 786.801C534.109 787.001 534.039 787.211 533.969 787.421C533.839 787.841 533.689 788.291 533.529 788.761C533.439 789.021 533.349 789.291 533.249 789.571C532.999 790.281 532.729 791.041 532.429 791.851C532.369 792.011 532.309 792.171 532.249 792.341C532.219 792.431 532.179 792.521 532.139 792.621C532.059 792.831 531.979 793.041 531.899 793.261C531.339 794.711 530.699 796.281 529.979 797.951C529.869 798.191 529.759 798.441 529.649 798.701C529.089 799.961 528.489 801.271 527.839 802.641C527.709 802.911 527.579 803.181 527.439 803.461C527.039 804.281 526.619 805.131 526.169 805.981C526.039 806.251 525.899 806.521 525.749 806.791C525.589 807.101 525.429 807.401 525.269 807.711C525.119 808.001 524.959 808.291 524.799 808.581C524.159 809.751 523.489 810.951 522.779 812.161C522.609 812.461 522.429 812.761 522.249 813.071C521.889 813.681 521.519 814.291 521.129 814.911C520.939 815.221 520.749 815.521 520.549 815.831C520.139 816.481 519.719 817.131 519.289 817.781C519.109 818.061 518.919 818.341 518.729 818.621C518.309 819.241 517.879 819.871 517.449 820.491C517.239 820.791 517.029 821.091 516.819 821.391C516.359 822.031 515.889 822.671 515.409 823.311C515.179 823.621 514.949 823.931 514.699 824.251C514.469 824.571 514.219 824.881 513.979 825.201C513.739 825.511 513.499 825.831 513.239 826.141C512.999 826.451 512.749 826.771 512.489 827.081C512.239 827.391 511.979 827.701 511.719 828.021C511.459 828.331 511.199 828.641 510.939 828.951C510.679 829.261 510.409 829.571 510.139 829.881C509.879 830.191 509.609 830.501 509.329 830.811C509.059 831.121 508.789 831.431 508.499 831.741C508.219 832.051 507.939 832.361 507.649 832.661C506.789 833.581 505.919 834.501 505.009 835.411C504.709 835.721 504.399 836.021 504.099 836.311C503.759 836.651 503.399 836.991 503.049 837.331C502.779 837.591 502.499 837.851 502.229 838.101C501.909 838.401 501.589 838.701 501.269 838.981C500.889 839.321 500.509 839.671 500.119 840.011C499.849 840.251 499.579 840.491 499.299 840.731C498.609 841.331 497.899 841.921 497.189 842.501C496.869 842.771 496.539 843.031 496.219 843.281C495.869 843.561 495.509 843.841 495.159 844.111C494.779 844.411 494.389 844.711 493.989 845.001C493.659 845.251 493.319 845.501 492.979 845.751C492.609 846.021 492.239 846.291 491.859 846.551C490.639 847.411 489.399 848.251 488.109 849.071C487.819 849.261 487.509 849.451 487.209 849.641C486.809 849.891 486.409 850.141 485.999 850.381C485.589 850.621 485.189 850.871 484.779 851.111C484.419 851.321 484.059 851.531 483.689 851.731C483.359 851.921 483.029 852.101 482.699 852.281C481.759 852.801 480.799 853.311 479.819 853.801C479.379 854.021 478.939 854.241 478.489 854.461C477.569 854.901 476.629 855.341 475.679 855.771C474.789 856.161 473.889 856.551 472.979 856.921C471.079 857.691 469.139 858.421 467.129 859.091C466.389 859.341 465.639 859.581 464.879 859.811C463.859 860.121 462.829 860.421 461.779 860.701C461.009 860.921 460.229 861.121 459.449 861.311C457.859 861.701 456.239 862.061 454.589 862.381C454.339 862.431 454.079 862.481 453.829 862.521C453.499 862.581 453.159 862.651 452.819 862.701C450.069 863.191 447.239 863.571 444.309 863.861C443.709 863.921 443.119 863.971 442.519 864.021C441.959 864.071 441.389 864.111 440.819 864.141C440.459 864.171 440.089 864.191 439.719 864.211C439.369 864.241 439.019 864.251 438.669 864.271C438.119 864.301 437.569 864.321 437.019 864.341C436.569 864.361 436.109 864.371 435.649 864.381C435.439 864.391 435.269 864.391 435.099 864.391Z" fill="white"/>
<path d="M495.37 373.491C509.49 396.761 541.92 386.441 572.84 367.691C603.76 348.931 619.24 321.231 605.12 297.951C591 274.681 554.49 271.011 523.58 289.771C492.65 308.521 481.25 350.211 495.37 373.491Z" fill="white"/>
<path d="M673.75 214.66L676.65 220.93C675.44 219.91 674.23 218.93 673.01 217.97C673.01 217.97 673.22 216.74 673.75 214.66Z" fill="white"/>
<path d="M675.779 207.94C677.039 204.32 678.819 200.02 681.239 195.57L675.779 207.94Z" fill="white"/>
<path d="M759.799 174C756.409 171.26 751.439 167.94 745.159 165.66C750.469 167.27 755.439 169.99 759.799 174Z" fill="white"/>
<path d="M779.309 316.61C760.249 314.61 752.629 290.65 752.629 290.65C752.629 290.65 733.019 247.8 708.749 223.21C705.539 219.96 704.549 215.12 706.189 210.86C712.229 195.1 729.639 161.5 763.759 178.2H763.769C768.589 184.09 772.369 191.95 774.629 202.08C784.329 245.74 782.919 287 779.309 316.61Z" fill="white"/>
<path d="M190.249 214.71L187.399 220.88C152.049 250.58 121.349 304.73 105.249 336.5C101.059 344.77 88.7289 342.91 87.1689 333.76C86.2989 328.63 85.4289 322.88 84.6689 316.62C103.759 314.65 111.389 290.66 111.389 290.66C111.389 290.66 130.999 247.81 155.269 223.22C158.479 219.97 159.459 215.13 157.829 210.87C151.779 195.1 134.369 161.47 100.189 178.24C101.389 176.77 102.649 175.43 103.969 174.2C107.379 171.41 112.499 167.94 118.999 165.62C131.809 161.79 146.509 164.42 159.209 171.2C170.599 177.27 178.099 186.95 182.929 195.94L188.049 207.53C189.079 210.4 189.789 212.89 190.249 214.71Z" fill="#BDBDBD"/>
<path d="M100.199 178.23C99.8392 178.4 99.4791 178.58 99.1191 178.77C99.1191 178.77 99.1991 178.68 99.3591 178.5C99.3891 178.46 99.4291 178.42 99.4691 178.38C99.5091 178.33 99.5692 178.27 99.6292 178.21C100.349 177.44 101.829 175.95 103.979 174.19C102.649 175.42 101.389 176.76 100.199 178.23Z" stroke="black" stroke-miterlimit="10"/>
<path d="M118.999 165.61C133.319 160.48 154.349 160.87 178.629 186.2L182.919 195.92C178.089 186.94 170.599 177.26 159.199 171.18C146.509 164.41 131.809 161.78 118.999 165.61Z" stroke="black" stroke-miterlimit="10"/>
<path d="M190.249 214.711C189.789 212.891 189.079 210.411 188.049 207.511L190.749 213.621L190.249 214.711Z" stroke="black" stroke-miterlimit="10"/>
<path d="M779.309 316.611C778.549 322.881 777.689 328.621 776.809 333.751C775.249 342.901 762.919 344.761 758.729 336.491C742.639 304.741 711.959 250.631 676.639 220.921L673.739 214.651V214.641C674.179 212.921 674.839 210.611 675.779 207.931L681.239 195.561L681.249 195.551C686.089 186.671 693.529 177.161 704.779 171.171C717.529 164.371 732.289 161.741 745.129 165.641C745.139 165.641 745.159 165.651 745.169 165.651H745.179C751.449 167.921 756.429 171.251 759.819 173.991C761.209 175.261 762.529 176.661 763.789 178.191C729.659 161.491 712.259 195.091 706.219 210.851C704.579 215.111 705.569 219.951 708.779 223.201C733.039 247.791 752.659 290.641 752.659 290.641C752.659 290.641 760.259 314.611 779.309 316.611Z" fill="#BDBDBD"/>
<path d="M673.749 214.65L673.279 213.62L675.789 207.94C674.849 210.62 674.189 212.93 673.749 214.65Z" stroke="black" stroke-miterlimit="10"/>
<path d="M681.249 195.561L685.389 186.201C709.739 160.811 730.799 160.471 745.129 165.651C732.289 161.761 717.529 164.391 704.779 171.181C693.529 177.181 686.089 186.681 681.249 195.561Z" stroke="black" stroke-miterlimit="10"/>
<path d="M759.799 174C761.609 175.46 762.959 176.75 763.819 177.63C763.869 177.68 763.919 177.73 763.959 177.77C764.069 177.87 764.149 177.96 764.229 178.05C764.669 178.51 764.889 178.77 764.889 178.77C764.509 178.58 764.139 178.38 763.759 178.2H763.749C762.519 176.67 761.189 175.27 759.799 174Z" stroke="black" stroke-miterlimit="10"/>
<path d="M803.949 727.891C719.789 872.471 534.819 894.061 432.029 894.061H431.999C329.209 894.061 144.249 872.481 60.0791 727.891C33.0091 681.381 26.3491 641.141 27.4091 610.581C33.9291 605.931 43.5391 600.831 56.2191 598.681C54.0491 618.131 54.9991 642.671 61.5591 673.421C86.3691 789.621 268.059 877.351 432.009 877.321C595.959 877.351 777.659 789.621 802.459 673.421C809.029 642.671 809.969 618.141 807.799 598.681C820.479 600.841 830.099 605.941 836.609 610.601C837.679 641.161 830.999 681.401 803.949 727.891Z" fill="#BDBDBD"/>
<path d="M187.409 220.87L182.609 231.29C182.609 231.29 182.599 231.3 182.589 231.31C181.079 233 79.5392 346.79 89.3092 501.89C90.2692 517.14 85.6792 532.21 76.2692 544.25C68.0692 554.74 59.1992 571.89 56.2192 598.68C43.5392 600.83 33.9292 605.93 27.4092 610.58C27.7492 600.63 28.9192 591.71 30.4592 583.94C37.1792 550.17 51.9092 530.95 52.0592 530.76C53.9592 528.32 54.7492 525.19 54.2592 522.14C54.1892 521.68 46.6792 475.13 41.4392 410.9C37.8592 366.95 34.8292 307.8 37.2592 248.74C37.3992 249.68 45.6892 306.39 73.0892 315.24C77.3392 316.61 81.1992 316.98 84.6692 316.62C85.4292 322.88 86.2892 328.63 87.1692 333.76C88.7292 342.91 101.059 344.77 105.249 336.5C121.359 304.72 152.059 250.57 187.409 220.87Z" fill="#B41B0B"/>
<path d="M836.609 610.611C830.099 605.951 820.479 600.851 807.799 598.691C804.819 571.901 795.939 554.741 787.749 544.251C778.339 532.211 773.749 517.141 774.709 501.891C784.489 346.791 682.939 233.001 681.429 231.311C681.419 231.301 681.409 231.291 681.409 231.291L676.629 220.931C711.949 250.631 742.629 304.741 758.719 336.501C762.909 344.771 775.239 342.911 776.799 333.761C777.669 328.631 778.529 322.881 779.299 316.621C782.779 316.991 786.639 316.631 790.909 315.251C818.369 306.391 826.639 249.471 826.749 248.741C829.189 307.801 826.149 366.961 822.569 410.911C817.339 475.141 809.829 521.691 809.749 522.151C809.259 525.201 810.049 528.331 811.949 530.771C812.099 530.961 826.829 550.181 833.549 583.951C835.109 591.731 836.279 600.651 836.609 610.611Z" fill="#B41B0B"/>
<path d="M328.859 783.321C270.759 770.471 265.389 729.091 265.589 712.881C262.489 788.091 324.439 791.801 324.439 791.801C324.439 791.801 329.129 862.941 428.929 864.391C348.309 862.951 328.859 783.321 328.859 783.321ZM522.619 754.381C480.379 750.191 454.939 727.181 450.589 722.171C446.239 717.171 444.279 703.891 444.279 703.891C444.279 703.891 483.229 686.271 493.889 663.421C504.559 640.571 502.649 619.901 502.649 619.901L502.439 620.011C502.579 621.201 502.649 622.411 502.649 623.641C502.649 649.591 472.079 693.201 432.029 693.231H431.989C411.959 693.221 394.309 682.311 381.659 668.151C369.009 654.001 361.369 636.611 361.369 623.631C361.369 622.401 361.439 621.181 361.579 620.001L361.369 619.891C361.369 619.891 359.469 640.561 370.129 663.411C380.799 686.261 419.749 703.881 419.749 703.881C419.749 703.881 417.789 717.151 413.439 722.161C409.089 727.171 383.649 750.181 341.409 754.371C308.379 757.641 280.639 730.381 270.119 718.341C282.819 743.101 320.049 765.281 346.419 761.411C377.029 756.911 425.409 730.651 425.409 730.651L431.999 705.551V705.411L432.019 705.481L432.039 705.411V705.551L438.619 730.651C438.619 730.651 486.999 756.911 517.619 761.411C543.989 765.291 581.229 743.111 593.919 718.341C583.379 730.381 555.649 757.651 522.619 754.381ZM598.439 712.981C598.619 729.261 593.149 770.491 535.159 783.321C535.159 783.321 515.709 862.961 435.089 864.401C484.479 863.681 510.579 845.891 524.349 828.111C538.389 809.961 539.589 791.811 539.589 791.811C539.589 791.811 601.489 788.101 598.439 712.981Z" fill="#BDBDBD"/>
<path d="M246.489 210.851C246.489 210.861 246.479 210.871 246.469 210.871C246.479 210.861 246.489 210.851 246.489 210.851Z" stroke="black" stroke-miterlimit="10"/>
<path d="M288.699 170.571C274.379 147.711 205.879 44.3908 134.169 39.2408C106.159 37.2308 90.3295 49.4408 82.1895 59.4208C94.8395 40.7208 109.709 28.6308 126.199 24.3608C172.909 12.2708 236.349 59.0808 309.809 159.791C301.889 163.221 294.879 166.871 288.699 170.571Z" fill="#F6897E"/>
<path d="M617.53 210.85C616.28 209.75 575.25 174.73 432.01 174.74C289.09 174.73 247.93 209.6 246.51 210.84C246.73 210.6 246.95 210.36 247.18 210.13C250.04 207.25 261.73 196.44 286 185.73C312.24 174.15 358.87 160.33 432.01 160.33C505.15 160.33 551.79 174.14 578.03 185.73C602.57 196.56 614.25 207.49 616.95 210.23C617.12 210.4 617.28 210.57 617.44 210.75C617.47 210.78 617.5 210.81 617.53 210.85Z" fill="#F6897E"/>
<path d="M781.819 59.3901C773.669 49.4201 757.839 37.2201 729.859 39.2401C658.149 44.4001 589.649 147.71 575.329 170.57C569.149 166.87 562.129 163.22 554.209 159.78C627.669 59.0701 691.099 12.2601 737.819 24.3501C754.299 28.6201 769.169 40.7001 781.819 59.3901Z" fill="#F6897E"/>
<path d="M855.379 579.6C849.449 549.78 837.839 529.5 832.409 521.23C834.419 507.96 840.359 466.48 844.729 412.92C849.639 352.77 853.529 264.53 844.179 185.75C838.789 140.33 828.119 100.21 813.329 69.7305C795.349 32.6805 771.819 10.1705 743.389 2.81048C715.429 -4.42952 684.079 3.60049 650.209 26.6605C615.629 50.2105 577.649 90.0905 537.269 145.24C535.839 147.2 533.089 151.9 532.289 151.65C506.629 143.62 473.789 138.07 432.029 138.07C432.019 138.07 432.019 138.07 432.009 138.07C431.999 138.07 431.999 138.07 431.989 138.07C390.229 138.07 357.389 143.62 331.729 151.65C330.929 151.9 328.179 147.2 326.749 145.24C286.369 90.0905 248.389 50.2105 213.809 26.6605C179.939 3.59049 148.589 -4.42952 120.629 2.81048C92.1992 10.1705 68.6692 32.6905 50.6892 69.7305C35.8992 100.21 25.2293 140.33 19.8393 185.75C10.4893 264.52 14.3792 352.76 19.2892 412.92C23.6592 466.47 29.5992 507.96 31.6092 521.23C26.1892 529.49 14.5793 549.78 8.63926 579.6C4.13926 602.23 3.78924 625.821 7.61924 649.701C12.3592 679.271 23.5392 709.341 40.8492 739.081C77.3192 801.731 134.939 848.771 212.109 878.901C274.779 903.371 350.809 916.3 431.989 916.3C431.999 916.3 432.009 916.3 432.029 916.3C513.209 916.3 589.239 903.371 651.909 878.901C729.079 848.771 786.699 801.731 823.169 739.081C840.479 709.341 851.659 679.271 856.399 649.701C860.229 625.821 859.879 602.23 855.379 579.6ZM803.949 727.891C719.789 872.471 534.819 894.06 432.029 894.06C432.019 894.06 431.999 894.06 431.989 894.06C329.199 894.06 144.229 872.48 60.0692 727.891C24.1892 666.241 24.1593 615.58 30.4493 583.94C37.1693 550.17 51.8992 530.95 52.0492 530.76C53.9492 528.32 54.7492 525.201 54.2492 522.141C54.1792 521.681 46.6692 475.131 41.4292 410.901C36.6092 351.821 32.7892 265.26 41.9092 188.38C52.8092 96.5105 84.3192 35.2005 126.189 24.3605C172.909 12.2705 236.339 59.0805 309.799 159.79C260.449 181.22 246.509 210.81 246.509 210.81L246.449 210.88C246.559 210.75 257.789 198.18 285.979 185.73C312.219 174.14 358.859 160.33 431.999 160.33C505.139 160.33 551.769 174.14 578.019 185.73C606.209 198.18 617.439 210.75 617.549 210.88L617.489 210.81C617.489 210.81 603.549 181.22 554.199 159.79C627.659 59.0805 691.099 12.2705 737.809 24.3605C779.679 35.2005 811.189 96.5205 822.089 188.38C831.209 265.26 827.389 351.821 822.569 410.901C817.339 475.131 809.829 521.681 809.749 522.141C809.249 525.191 810.049 528.32 811.949 530.76C812.099 530.95 826.829 550.17 833.549 583.94C839.859 615.58 839.829 666.241 803.949 727.891Z" fill="#550400"/>
<path d="M723.959 155.891C693.039 160.471 676.979 188.051 670.159 204.081C666.549 212.561 669.289 222.301 676.819 227.761C708.269 250.571 737.139 297.841 737.429 298.321C737.429 298.321 716.639 242.901 683.349 218.761C680.039 216.361 678.829 212.111 680.389 208.441C686.299 194.551 700.029 170.681 725.589 166.901C751.279 163.091 764.379 178.161 764.909 178.771C764.899 178.771 756.069 151.131 723.959 155.891Z" fill="#550400"/>
<path d="M517.61 761.41C487 756.91 438.62 730.65 438.62 730.65L432.03 705.55V705.41L432.01 705.48L431.99 705.41V705.55L425.4 730.65C425.4 730.65 377.02 756.91 346.41 761.41C315.8 765.91 270.54 735.3 266.04 706.28C266.04 706.28 256.03 767.21 328.86 783.31C328.86 783.31 348.8 864.96 431.99 864.41C432 864.41 432 864.41 432.01 864.41C432.02 864.41 432.02 864.41 432.03 864.41C515.22 864.97 535.16 783.31 535.16 783.31C607.99 767.21 597.98 706.28 597.98 706.28C593.48 735.3 548.22 765.91 517.61 761.41ZM501.07 819.55C501.07 819.55 481.49 848.38 432.01 848.38C382.53 848.38 362.95 819.55 362.95 819.55C362.95 819.55 360.01 790.06 385.69 783.54C405.17 778.59 424.03 788.67 431.99 793.82V793.84C432 793.84 432 793.83 432.01 793.83C432.02 793.83 432.02 793.84 432.03 793.84V793.82C439.99 788.67 458.85 778.59 478.33 783.54C504.01 790.06 501.07 819.55 501.07 819.55Z" fill="#550400"/>
<path d="M599.369 577.03C640.746 577.03 674.289 536.212 674.289 485.86C674.289 435.509 640.746 394.69 599.369 394.69C557.992 394.69 524.449 435.509 524.449 485.86C524.449 536.212 557.992 577.03 599.369 577.03Z" fill="#550400"/>
<path d="M193.869 204.081C187.049 188.051 170.979 160.471 140.069 155.891C107.959 151.131 99.1191 178.771 99.1191 178.771C99.6391 178.151 112.739 163.091 138.439 166.901C163.989 170.691 177.729 194.551 183.639 208.441C185.209 212.121 183.989 216.361 180.679 218.761C147.399 242.911 126.599 298.321 126.599 298.321C126.889 297.851 155.759 250.571 187.209 227.761C194.739 222.301 197.479 212.561 193.869 204.081Z" fill="#550400"/>
<path d="M431.989 693.231C431.999 693.231 431.999 693.231 432.009 693.231C432.019 693.231 432.019 693.231 432.029 693.231C472.089 693.201 502.649 649.591 502.649 623.641C502.649 597.691 472.079 581.821 432.029 581.811C432.019 581.811 432.019 581.811 432.009 581.811C431.999 581.811 431.999 581.811 431.989 581.811C391.929 581.821 361.369 597.681 361.369 623.641C361.369 649.591 391.939 693.201 431.989 693.231Z" fill="#550400"/>
<path d="M264.659 577.03C306.036 577.03 339.579 536.212 339.579 485.86C339.579 435.509 306.036 394.69 264.659 394.69C223.282 394.69 189.739 435.509 189.739 485.86C189.739 536.212 223.282 577.03 264.659 577.03Z" fill="#550400"/>
<path d="M302.429 488.118C315.026 480.844 317.758 461.99 308.529 446.006C299.3 430.022 281.607 422.961 269.009 430.234C256.411 437.508 253.68 456.362 262.908 472.346C272.137 488.33 289.831 495.391 302.429 488.118Z" fill="white"/>
<path d="M262.099 514.64C267.627 514.64 272.109 510.158 272.109 504.63C272.109 499.102 267.627 494.62 262.099 494.62C256.57 494.62 252.089 499.102 252.089 504.63C252.089 510.158 256.57 514.64 262.099 514.64Z" fill="white"/>
<path d="M601.044 472.383C610.273 456.399 607.541 437.544 594.943 430.271C582.346 422.997 564.652 430.059 555.423 446.043C546.194 462.027 548.925 480.881 561.523 488.154C574.121 495.428 591.815 488.367 601.044 472.383Z" fill="white"/>
<path d="M601.889 514.64C607.417 514.64 611.899 510.158 611.899 504.63C611.899 499.102 607.417 494.62 601.889 494.62C596.361 494.62 591.879 499.102 591.879 504.63C591.879 510.158 596.361 514.64 601.889 514.64Z" fill="white"/>
<path d="M469.949 604.3C469.949 610.91 452.949 611.26 431.989 611.26C411.019 611.26 394.029 610.91 394.029 604.3C394.029 597.69 411.029 592.33 431.989 592.33C452.959 592.33 469.949 597.69 469.949 604.3Z" fill="#8C231A"/>
<path d="M852.38 392.061C815.14 375.821 758.01 362.701 756.98 362.471H756.97C723.31 354.561 682.65 351.941 635.83 354.681C601.46 356.691 570.4 362.581 543.52 372.181C523.64 379.271 506.39 388.221 492.25 398.791C486.99 402.721 482.5 407.481 478.91 412.821C468.29 408.261 453.15 404.491 432.07 404.491C432.05 404.491 432.03 404.491 432.01 404.491C432 404.491 431.99 404.491 431.98 404.491C431.96 404.491 431.94 404.491 431.92 404.491C410.84 404.491 395.7 408.251 385.08 412.821C381.49 407.481 377.01 402.721 371.74 398.791C357.59 388.221 340.34 379.271 320.47 372.181C293.58 362.581 262.52 356.691 228.16 354.681C181.34 351.941 140.67 354.561 107.02 362.471H107.01C105.98 362.701 48.8496 375.821 11.6096 392.061C4.90962 394.981 0.599609 401.611 0.599609 408.921V418.901C0.599609 424.141 2.68965 429.181 6.38965 432.891L21.1796 447.681C29.8896 456.391 34.9896 468.061 35.5096 480.361C36.3896 501.211 38.9697 524.561 44.7797 547.571C48.8797 563.821 57.3296 578.951 69.8796 592.541C81.7596 605.391 96.7596 616.271 114.47 624.871C140.33 637.441 170.5 644.311 201.71 644.741C202.73 644.751 203.76 644.761 204.78 644.761C237.35 644.761 270.51 637.651 300.89 624.121C322.75 614.391 341.21 600.651 355.77 583.281C368.11 568.571 377.74 551.141 384.4 531.481C395.97 497.321 396.42 463.381 394.77 440.921C394.72 440.281 394.66 439.651 394.59 439.011C401.6 435.731 413.36 432.301 431.91 432.301C431.93 432.301 431.95 432.301 431.98 432.301C432.01 432.301 432.02 432.301 432.05 432.301C450.6 432.301 462.36 435.731 469.37 439.011C469.3 439.641 469.24 440.281 469.19 440.921C467.54 463.381 467.99 497.321 479.56 531.481C486.22 551.141 495.85 568.571 508.19 583.281C522.75 600.641 541.21 614.381 563.07 624.121C593.45 637.651 626.61 644.761 659.18 644.761C660.2 644.761 661.23 644.751 662.25 644.741C693.46 644.311 723.63 637.441 749.49 624.871C767.2 616.271 782.2 605.381 794.08 592.541C806.63 578.951 815.08 563.821 819.18 547.571C824.99 524.561 827.57 501.221 828.45 480.361C828.97 468.051 834.07 456.391 842.78 447.681L857.57 432.891C861.28 429.181 863.36 424.141 863.36 418.901V408.921C863.39 401.611 859.08 394.981 852.38 392.061ZM289.6 598.711C262.14 610.941 232.9 617.061 204.47 617.061C176.98 617.061 150.25 611.331 126.64 599.861C97.6896 585.791 77.6896 564.251 71.7596 540.771C62.5896 504.431 62.2096 466.711 63.5096 441.461C64.6896 418.531 80.2996 398.821 102.35 392.431C127.57 385.111 158.07 381.441 193.3 381.441C203.96 381.441 215.03 381.771 226.54 382.451C299.08 386.701 338.23 408.481 355.11 421.081C362.06 426.271 366.4 434.241 367.04 442.971C369.66 478.251 367.31 564.101 289.6 598.711ZM792.24 540.761C786.32 564.241 766.31 585.781 737.36 599.851C713.74 611.321 687.02 617.051 659.53 617.051C631.1 617.051 601.86 610.931 574.4 598.701C496.69 564.091 494.34 478.251 496.94 442.941C497.58 434.211 501.93 426.241 508.87 421.051C525.75 408.451 564.9 386.671 637.44 382.421C648.95 381.751 660.02 381.411 670.68 381.411C705.92 381.411 736.41 385.091 761.63 392.401C783.69 398.801 799.3 418.501 800.47 441.431C801.79 466.701 801.41 504.431 792.24 540.761Z" fill="#550400"/>
<path opacity="0.15" d="M792.239 540.76C786.319 564.24 766.309 585.78 737.359 599.85C713.739 611.32 687.019 617.05 659.529 617.05C631.099 617.05 601.859 610.93 574.399 598.7C496.689 564.09 494.339 478.25 496.939 442.94C497.579 434.21 501.929 426.24 508.869 421.05C525.749 408.45 564.899 386.67 637.439 382.42C648.949 381.75 660.019 381.41 670.679 381.41C705.919 381.41 736.409 385.09 761.629 392.4C783.689 398.8 799.299 418.5 800.469 441.43C801.789 466.7 801.409 504.43 792.239 540.76Z" fill="white"/>
<path d="M521.96 391.62C521.96 391.62 643.39 346.79 783.53 385.96C783.53 385.96 670.81 325.03 521.96 391.62Z" fill="#A56463"/>
<path opacity="0.15" d="M71.7594 540.76C77.6794 564.24 97.6894 585.78 126.639 599.85C150.259 611.32 176.979 617.05 204.469 617.05C232.899 617.05 262.139 610.93 289.599 598.7C367.309 564.09 369.659 478.25 367.059 442.94C366.419 434.21 362.069 426.24 355.129 421.05C338.249 408.45 299.099 386.67 226.559 382.42C215.049 381.75 203.979 381.41 193.319 381.41C158.079 381.41 127.589 385.09 102.369 392.4C80.3093 398.8 64.6994 418.5 63.5294 441.43C62.2094 466.7 62.5894 504.43 71.7594 540.76Z" fill="white"/>
<path d="M342.04 391.62C342.04 391.62 220.61 346.79 80.4697 385.96C80.4697 385.96 193.19 325.03 342.04 391.62Z" fill="#A56463"/>
</svg>
