<svg width="363" height="45" viewBox="0 0 363 45" fill="none" xmlns="http://www.w3.org/2000/svg">
<path d="M23.2553 38.1313C22.3067 37.8901 21.389 38.3809 21.0013 38.6316V38.6327C21.001 38.6324 21.0008 38.6324 21.0005 38.6321C21.0002 38.6324 21 38.6324 20.9997 38.6327V38.6316C20.612 38.3809 19.6943 37.8901 18.7457 38.1313C17.4958 38.4491 17.6387 39.8844 17.6387 39.8844C17.6387 39.8844 18.5919 41.2878 21.0005 41.2881C23.4093 41.2881 24.3623 39.8844 24.3623 39.8844C24.3623 39.8844 24.5052 38.4491 23.2553 38.1313Z" fill="#D65B5B"/>
<path d="M22.9193 38.5415C22.1125 38.3363 21.3318 38.7538 21.002 38.9671V38.9682C21.0018 38.9679 21.0015 38.9679 21.0012 38.9676C21.001 38.9679 21.0007 38.9679 21.0004 38.9682V38.9671C20.6707 38.7538 19.8899 38.3363 19.0832 38.5415C18.8174 38.6092 18.6257 38.7362 18.4874 38.8886C18.0407 39.3816 18.1411 40.158 18.6812 40.5465C19.1311 40.87 19.8813 41.2268 21.0012 41.2268C22.1215 41.2268 22.8713 40.87 23.3213 40.5465C23.8613 40.158 23.9618 39.3816 23.5151 38.8886C23.3768 38.7362 23.1851 38.6092 22.9193 38.5415Z" fill="#F89C9B"/>
<path d="M40.6962 29.7121C40.6797 29.2272 40.6231 28.7927 40.5476 28.4137C40.2206 26.7697 39.5034 25.8341 39.4961 25.8249C39.4035 25.706 39.3648 25.5539 39.3889 25.4053C39.3927 25.3828 39.7582 23.1169 40.0129 19.9901C40.1873 17.8506 40.3351 14.971 40.2165 12.0958C40.2165 12.0955 40.2165 12.0955 40.2165 12.0955C40.1756 11.1055 40.1033 10.1163 39.9896 9.15768C39.71 6.80109 39.1518 4.85762 38.3881 3.46885C38.3881 3.46885 38.3878 3.46858 38.3876 3.46776C38.2728 3.25904 38.1531 3.06277 38.0294 2.87977C38.0291 2.8795 38.0289 2.87896 38.0286 2.87868C37.413 1.96881 36.6891 1.38054 35.8869 1.1729C33.6127 0.584365 30.5246 2.86298 26.9487 7.76565C27.3342 7.93296 27.6756 8.11082 27.9766 8.29084C29.5514 9.23402 30.0295 10.2492 30.0295 10.2492L30.0267 10.2465C30.0186 10.2378 30.0108 10.2294 30.0027 10.2211C29.8714 10.0879 29.3026 9.5559 28.1082 9.02855C26.8307 8.46464 24.5604 7.79218 21 7.79218C17.4395 7.79218 15.1696 8.46464 13.8921 9.02855C12.7104 9.54995 12.1413 10.0762 12.0022 10.2162C11.9911 10.2275 11.9803 10.2392 11.9697 10.2508C11.9694 10.2511 11.9694 10.2514 11.9692 10.2514H11.9689L11.9705 10.2492C11.9705 10.2492 12.4486 9.23402 14.0236 8.29084C14.3247 8.11055 14.6658 7.93296 15.0515 7.76565C11.4754 2.86298 8.38732 0.584365 6.1133 1.1729C5.31063 1.38081 4.58646 1.96935 3.97085 2.87977C3.84686 3.06277 3.72748 3.25904 3.61269 3.46776C3.61242 3.46858 3.61215 3.46885 3.61215 3.46885C2.84819 4.85762 2.29024 6.80109 2.01059 9.15768C1.89689 10.1163 1.82461 11.1055 1.78373 12.0955C1.78373 12.0955 1.78373 12.0958 1.78373 12.096C1.66516 14.9713 1.81297 17.8506 1.98704 19.9901C2.24206 23.1169 2.60752 25.3828 2.61104 25.4053C2.63514 25.5539 2.59642 25.706 2.50411 25.8249C2.4968 25.8341 1.77967 26.7697 1.45265 28.4137C1.37739 28.7922 1.32054 29.2264 1.30403 29.7107C1.25205 31.198 1.57637 33.1572 2.89421 35.4212C6.99123 42.4596 15.9953 43.5102 20.9992 43.5102H21.0008C26.0047 43.5102 35.009 42.4596 39.106 35.4212C40.4231 33.158 40.7479 31.1991 40.6962 29.7121ZM6.13279 14.5087C6.15445 14.451 7.16232 11.7993 8.76497 10.6366C8.92604 10.5199 8.98506 10.3131 8.90899 10.1342C8.62122 9.4579 7.95255 8.29599 6.7086 8.11163C5.61031 7.94893 4.98495 8.49442 4.83146 8.65036C4.82929 8.65252 4.82713 8.65469 4.82523 8.65658C4.82307 8.65875 4.82144 8.66064 4.81955 8.66254C4.81657 8.66552 4.81386 8.66849 4.8117 8.67093C4.8098 8.67282 4.80791 8.67472 4.80655 8.67661C4.7987 8.68528 4.79464 8.68988 4.79464 8.68988C4.79464 8.68988 5.22481 7.34469 6.78792 7.57615C8.29311 7.79922 9.07493 9.1417 9.4071 9.92191C9.5828 10.3348 9.44961 10.8088 9.08279 11.0749C9.0078 11.1293 8.93308 11.1867 8.85863 11.2465C8.85863 11.2465 8.85836 11.2468 8.85782 11.2473C7.42871 12.3968 6.16663 14.4537 6.13279 14.5087ZM20.935 42.067C20.9272 42.067 20.9193 42.067 20.9115 42.0668C20.8909 42.0668 20.8703 42.0665 20.85 42.0662C16.9254 41.9961 15.9785 38.1194 15.9785 38.1194C13.15 37.4938 12.8885 35.4794 12.8983 34.6905V34.687C12.901 34.4891 12.9207 34.3695 12.9207 34.3695C12.9511 34.5652 13.0195 34.7626 13.1189 34.9564C13.1189 34.9564 13.1189 34.9564 13.1189 34.9567C13.7369 36.1622 15.5497 37.2418 16.8331 37.0531C18.3231 36.8341 20.6784 35.5558 20.6784 35.5558L20.9992 34.3337V34.327L21 34.3305L21.0011 34.327V34.3337L21.3216 35.5558C21.3216 35.5558 23.6768 36.8341 25.1671 37.0531C26.4506 37.2418 28.2636 36.1622 28.8814 34.9564C28.8814 34.9561 28.8816 34.9559 28.8816 34.9559C28.9807 34.762 29.0492 34.5652 29.0795 34.3695C29.0795 34.3695 29.0998 34.4927 29.102 34.6954C29.1106 35.4878 28.8443 37.4952 26.0215 38.1194C26.0215 38.1194 25.0748 41.9961 21.1502 42.0662L21.0888 42.0668C21.0598 42.0676 21.0306 42.0676 21.0011 42.0673H20.9586C20.9507 42.0673 20.9429 42.0673 20.935 42.067ZM25.4998 23.6391C25.4998 21.188 27.1325 19.201 29.1469 19.201C31.1613 19.201 32.7943 21.188 32.7943 23.6391C32.7943 26.0902 31.1613 28.077 29.1469 28.077C27.1325 28.077 25.4998 26.0902 25.4998 23.6391ZM23.4511 28.8544C24.0085 29.1723 24.3661 29.6192 24.4289 30.1693C24.4356 30.2273 24.4389 30.286 24.4389 30.3461C24.4389 31.6095 22.9508 33.7325 21.0011 33.7338H20.9992C20.0241 33.7333 19.1648 33.2022 18.5489 32.5132C17.9333 31.8245 17.5613 30.9779 17.5613 30.3461C17.5613 30.286 17.5646 30.227 17.5714 30.1693C17.7037 29.0112 19.1418 28.3106 20.9992 28.31H21.0011C21.9759 28.3103 22.8354 28.5036 23.4511 28.8544ZM33.1413 11.2465C33.0669 11.1867 32.9922 11.1293 32.9172 11.0749C32.5506 10.8088 32.4172 10.3348 32.5931 9.92191C32.925 9.1417 33.7071 7.79922 35.212 7.57615C36.7754 7.34469 37.2053 8.68988 37.2053 8.68988C37.2053 8.68988 37.1945 8.67716 37.1731 8.65469C37.1712 8.65252 37.1691 8.65035 37.1666 8.64819C37.1647 8.64575 37.1623 8.64359 37.1599 8.64115C37.1577 8.63899 37.1552 8.63655 37.1528 8.63411C36.975 8.46058 36.355 7.95407 35.2914 8.11163C34.0474 8.29599 33.379 9.4579 33.0913 10.1342C33.0149 10.3131 33.0742 10.5199 33.2353 10.6366C34.8379 11.7993 35.8455 14.451 35.8672 14.5087C35.8333 14.4537 34.5713 12.3968 33.1422 11.2473C33.1416 11.2468 33.1413 11.2465 33.1413 11.2465ZM12.8533 19.201C14.8675 19.201 16.5004 21.188 16.5004 23.6391C16.5004 26.0902 14.8675 28.077 12.8533 28.077C10.8389 28.077 9.20596 26.0902 9.20596 23.6391C9.20596 21.188 10.8389 19.201 12.8533 19.201Z" fill="#F32508"/>
<path d="M17.914 18.1704C17.2267 19.3034 15.6478 18.8009 14.1429 17.8881C12.638 16.975 11.8843 15.6262 12.5714 14.4933C13.2588 13.3603 15.036 13.1819 16.5409 14.0951C18.0461 15.0082 18.6014 17.0375 17.914 18.1704Z" fill="white"/>
<path d="M5.76273 8.05078C5.44653 8.16394 5.19747 8.33287 5.03125 8.4685C5.24864 8.26627 5.49742 8.1301 5.76273 8.05078Z" fill="white"/>
<path d="M7.65407 10.2523C7.73366 10.4597 7.68574 10.6955 7.52954 10.8536C6.3484 12.0507 5.39359 14.1365 5.39359 14.1365C5.39359 14.1365 5.02217 15.3044 4.0928 15.4005C3.9171 13.9589 3.84834 11.9505 4.32074 9.82511C4.43011 9.3324 4.6142 8.95015 4.84837 8.66373C6.51192 7.84752 7.35953 9.48481 7.65407 10.2523Z" fill="white"/>
<path d="M9.12433 10.0896L8.875 9.52539C8.9841 9.72762 9.06531 9.92253 9.12433 10.0896Z" fill="white"/>
<path d="M9.26684 10.5984C9.20864 10.6441 9.15071 10.6912 9.09277 10.7397L9.23138 10.4395C9.25656 10.5396 9.26684 10.5984 9.26684 10.5984Z" fill="white"/>
<path d="M13.8113 37.0228C13.7724 36.9833 13.7347 36.9432 13.6987 36.9029C13.7345 36.9432 13.7721 36.9833 13.8113 37.0228ZM13.6987 36.9029C13.663 36.8625 13.6286 36.8219 13.5956 36.781C13.6283 36.8219 13.6627 36.8625 13.6987 36.9029ZM13.349 36.424C13.4137 36.5336 13.4873 36.6427 13.5712 36.7502C13.4873 36.6427 13.4137 36.5333 13.349 36.424ZM13.349 36.424C13.3065 36.3522 13.2677 36.2799 13.2328 36.2082C13.2675 36.2799 13.3062 36.352 13.349 36.424ZM39.2941 29.1325C38.5009 28.9969 37.4608 29.0976 36.1752 29.7833C32.8381 31.563 29.2895 33.4805 26.9801 31.4041C24.6709 29.3279 23.3573 26.2559 20.9997 26.2559C18.642 26.2559 17.3285 29.3279 15.0193 31.4041C12.7098 33.4805 9.16125 31.563 5.82413 29.7833C4.53958 29.0981 3.50003 28.9971 2.7071 29.1322C2.60152 30.0792 2.64755 31.2736 2.96699 32.7706C4.17466 38.4273 13.0195 42.6981 21.0005 42.6965C28.9817 42.6981 37.8266 38.4273 39.034 32.7706C39.3537 31.2736 39.3994 30.0795 39.2941 29.1325ZM21.1507 42.067C21.1015 42.0681 21.0519 42.0684 21.0016 42.0681H20.9591C20.9225 42.0681 20.8865 42.0679 20.8505 42.067C20.8421 42.067 20.834 42.0668 20.8256 42.0665C20.8031 42.0662 20.7809 42.0654 20.759 42.0646C20.7322 42.0638 20.7057 42.0627 20.6791 42.0616C20.661 42.0608 20.6429 42.0597 20.625 42.0586C20.6079 42.0578 20.5909 42.0568 20.5741 42.0554C20.5462 42.0538 20.5186 42.0519 20.4913 42.0494C20.462 42.0473 20.4331 42.0448 20.4041 42.0419C20.2617 42.0281 20.1236 42.0094 19.9899 41.9856C19.9715 41.9823 19.9531 41.9791 19.9347 41.9755C19.8434 41.9582 19.7544 41.939 19.6669 41.9176C19.6247 41.907 19.583 41.8962 19.5419 41.8849C19.4986 41.8729 19.4555 41.8608 19.4133 41.8475C19.3727 41.8353 19.3326 41.8226 19.2931 41.8093C19.1953 41.7768 19.1006 41.7414 19.0083 41.7037C18.9623 41.6851 18.9168 41.6656 18.8721 41.6455C18.8499 41.6355 18.8277 41.6255 18.8055 41.6152C18.7836 41.6049 18.7617 41.5946 18.74 41.5841C18.7181 41.5735 18.6967 41.5627 18.6753 41.5519C18.6277 41.528 18.5811 41.5034 18.5351 41.478C18.5188 41.4693 18.5029 41.4604 18.4869 41.4512C18.2549 41.3201 18.0426 41.1737 17.8488 41.0172C17.8374 41.008 17.8261 40.9985 17.8147 40.9893C17.7852 40.965 17.7559 40.9403 17.7273 40.9154C17.7137 40.904 17.7005 40.8924 17.6872 40.8805C17.6682 40.864 17.6496 40.8472 17.6311 40.8304C17.6176 40.8182 17.6041 40.8058 17.5905 40.7931C17.5575 40.7625 17.5253 40.7316 17.4934 40.7002C17.482 40.6891 17.4706 40.678 17.4592 40.6666C17.4265 40.6339 17.3943 40.6008 17.3629 40.5675C17.3485 40.5527 17.3344 40.5375 17.3209 40.5226C17.2936 40.4934 17.267 40.4641 17.241 40.4346C17.1872 40.3737 17.1352 40.3123 17.0851 40.2505C17.0727 40.2354 17.0605 40.2199 17.0486 40.2048C17.0361 40.1896 17.0242 40.1742 17.0126 40.159C17.0006 40.1436 16.9887 40.1284 16.9774 40.113C16.9657 40.0976 16.9541 40.0824 16.943 40.0673C16.9197 40.0361 16.897 40.0047 16.8745 39.9736C16.8642 39.959 16.8539 39.9446 16.8439 39.93C16.8225 39.8994 16.8017 39.8691 16.7814 39.8388C16.7722 39.825 16.763 39.8114 16.754 39.7979C16.7332 39.7662 16.7129 39.7345 16.6928 39.7029C16.6831 39.6877 16.6736 39.6728 16.6644 39.6579C16.6457 39.6279 16.6276 39.5981 16.61 39.5686C16.6011 39.5537 16.5924 39.5391 16.584 39.5245C16.5494 39.4657 16.5166 39.4075 16.4855 39.3504C16.4776 39.3361 16.4698 39.322 16.4625 39.3079C16.4546 39.293 16.4465 39.2781 16.4389 39.2632C16.4316 39.25 16.4248 39.2367 16.4183 39.2237C16.397 39.1823 16.3764 39.1411 16.3566 39.1011C16.3498 39.0875 16.3434 39.0743 16.3371 39.061C16.3055 38.9947 16.2759 38.9308 16.2489 38.8693C16.2435 38.8569 16.238 38.8447 16.2329 38.8328C16.1977 38.7513 16.1666 38.6747 16.1392 38.6043C16.1352 38.5938 16.1311 38.5835 16.1273 38.5732C16.1254 38.5686 16.1238 38.564 16.1222 38.5596C16.1192 38.5515 16.1162 38.5437 16.1132 38.5358C16.0986 38.4963 16.0854 38.4595 16.0732 38.4248C16.0686 38.4113 16.064 38.3983 16.0596 38.3856C16.0518 38.3626 16.0448 38.3406 16.038 38.3203C16.0345 38.3098 16.0312 38.2998 16.0282 38.29C16.0058 38.2194 15.9917 38.1685 15.9847 38.1419C15.983 38.136 15.9817 38.1314 15.9809 38.1279C15.9795 38.1227 15.979 38.1203 15.979 38.1203C14.9578 37.8945 14.2713 37.4876 13.8113 37.0228C13.7724 36.9833 13.7347 36.9432 13.6987 36.9029C13.663 36.8625 13.6286 36.8219 13.5956 36.781C13.5872 36.7708 13.5791 36.7605 13.5712 36.7502C13.4873 36.6427 13.4137 36.5333 13.349 36.424C13.3065 36.3522 13.2677 36.2799 13.2328 36.2082C13.127 35.9922 13.0536 35.7783 13.003 35.5769C12.9951 35.5452 12.9876 35.5138 12.9808 35.483C12.9115 35.1689 12.8966 34.8909 12.899 34.6914C12.9015 34.4913 12.9215 34.3703 12.9215 34.3703C12.9518 34.5663 13.0203 34.7637 13.1197 34.9575C13.1197 34.9575 13.1197 34.9578 13.1199 34.9578C13.1465 35.0097 13.1754 35.0617 13.2066 35.1132C13.2168 35.1305 13.2274 35.1475 13.2382 35.1646C13.2393 35.1665 13.2407 35.1684 13.2418 35.1703C13.2515 35.1854 13.2612 35.2009 13.2713 35.2158C13.2745 35.2206 13.2778 35.2255 13.281 35.2304C13.2891 35.2426 13.2975 35.2547 13.3059 35.2669C13.3176 35.2837 13.3295 35.3008 13.3416 35.3175C13.3538 35.3343 13.366 35.3511 13.3787 35.3679C13.3888 35.3814 13.399 35.395 13.4093 35.4082C13.4118 35.4115 13.4145 35.4147 13.4169 35.418C13.4286 35.4331 13.4405 35.448 13.4524 35.4629C13.467 35.4811 13.4819 35.4992 13.497 35.5171C13.5108 35.5336 13.5247 35.5498 13.539 35.5661C13.5672 35.5985 13.5961 35.6308 13.6259 35.663C13.6359 35.6738 13.6459 35.6844 13.6562 35.6952C13.6652 35.7044 13.6741 35.7139 13.683 35.7231C13.719 35.7602 13.7558 35.7967 13.7935 35.833C13.9635 35.9957 14.1508 36.1492 14.3501 36.2883C14.3652 36.2994 14.3804 36.31 14.3958 36.3203C14.4592 36.3639 14.5239 36.4058 14.5894 36.4462C14.6113 36.46 14.6332 36.4732 14.6554 36.4865C14.6787 36.5003 14.702 36.5141 14.7253 36.5274C14.7729 36.5547 14.8208 36.5815 14.8693 36.6072C14.892 36.6191 14.9151 36.6313 14.9383 36.643C14.9611 36.6549 14.9844 36.6663 15.0074 36.6776C15.0344 36.6909 15.0621 36.7042 15.0894 36.7169C15.1075 36.7253 15.1254 36.7337 15.1435 36.7418C15.1717 36.7545 15.1996 36.7667 15.2277 36.7789C15.2513 36.7889 15.2751 36.7986 15.2987 36.8084C15.2995 36.8087 15.3 36.8089 15.3008 36.8092C15.3252 36.8192 15.3496 36.829 15.3742 36.8382C15.4048 36.8501 15.4354 36.8614 15.466 36.8723C15.4779 36.8766 15.4895 36.8809 15.5014 36.8847C15.516 36.8901 15.5304 36.895 15.545 36.8999C15.5634 36.9058 15.5816 36.9118 15.5997 36.9177C15.6224 36.9251 15.6452 36.9321 15.6679 36.9389C15.6907 36.9456 15.7134 36.9524 15.7361 36.9586C15.7378 36.9592 15.7397 36.9597 15.7413 36.96C15.7648 36.9667 15.7887 36.973 15.8122 36.9789C15.8144 36.9795 15.8165 36.98 15.8187 36.9806C15.8406 36.9862 15.8623 36.9914 15.8839 36.9965C15.8867 36.9971 15.8894 36.9976 15.8921 36.9984C15.9148 37.0036 15.9375 37.0087 15.9603 37.0133C15.9803 37.0176 16.0004 37.0214 16.0201 37.0252C16.0759 37.0358 16.1311 37.0447 16.1861 37.052C16.2069 37.0547 16.2275 37.0574 16.2481 37.0596C16.2657 37.0615 16.2833 37.0634 16.3008 37.0647C16.3119 37.0661 16.3233 37.0669 16.3347 37.0677C16.3488 37.0688 16.3626 37.0699 16.3766 37.0707C16.3837 37.0712 16.3907 37.0715 16.3978 37.0718C16.4129 37.0729 16.4278 37.0734 16.443 37.0737C16.5773 37.0788 16.7083 37.0723 16.8339 37.0539C18.3239 36.8349 20.6791 35.5566 20.6791 35.5566L20.9999 34.3346V34.3278L21.0008 34.3313L21.0018 34.3278V34.3346L21.3224 35.5566C21.3224 35.5566 23.6776 36.8349 25.1679 37.0539C25.2935 37.0723 25.4245 37.0788 25.5588 37.0737C25.574 37.0734 25.5889 37.0729 25.604 37.0718C25.6111 37.0715 25.6181 37.0712 25.6251 37.0707C25.6392 37.0699 25.653 37.0688 25.6671 37.0677C25.6785 37.0669 25.6898 37.0661 25.7009 37.0647C25.7185 37.0634 25.7361 37.0615 25.7537 37.0596C25.7743 37.0574 25.7949 37.0547 25.8157 37.052C25.8707 37.0447 25.9259 37.0358 25.9817 37.0252C26.0014 37.0214 26.0215 37.0176 26.0415 37.0133C26.0642 37.0087 26.087 37.0036 26.1097 36.9984C26.1124 36.9976 26.1151 36.9971 26.1178 36.9965C26.1395 36.9914 26.1611 36.9862 26.1831 36.9806C26.1852 36.98 26.1874 36.9795 26.1896 36.9789C26.2131 36.973 26.2367 36.9667 26.2605 36.96C26.2624 36.9597 26.264 36.9592 26.2656 36.9586C26.2884 36.9524 26.3111 36.9456 26.3339 36.9389C26.358 36.9316 26.3821 36.9242 26.4061 36.9164C26.424 36.9107 26.4416 36.9048 26.4595 36.8988C26.473 36.8945 26.4868 36.8899 26.5004 36.8847C26.512 36.8809 26.5239 36.8766 26.5358 36.8723C26.5664 36.8614 26.597 36.8501 26.6276 36.8382C26.652 36.829 26.6763 36.8192 26.7007 36.8092C26.7253 36.7994 26.7497 36.7892 26.7738 36.7789C26.7981 36.7683 26.8225 36.7578 26.8466 36.7469C26.8702 36.7364 26.8937 36.7255 26.9173 36.7144C26.9189 36.7139 26.9202 36.7131 26.9219 36.7125C26.9451 36.7014 26.9684 36.6903 26.9917 36.679C27.0155 36.6673 27.0396 36.6552 27.0634 36.643C27.0865 36.6313 27.1095 36.6191 27.1325 36.6072C27.1346 36.6059 27.1365 36.6048 27.1387 36.6037C27.1612 36.5918 27.1836 36.5796 27.2058 36.5672C27.2294 36.5542 27.2529 36.5409 27.2765 36.5274C27.3025 36.5125 27.3285 36.4973 27.3542 36.4819C27.3737 36.47 27.3929 36.4583 27.4124 36.4462C27.485 36.4015 27.5564 36.3547 27.6265 36.3062C27.6463 36.2927 27.6658 36.2789 27.6853 36.2648C27.7056 36.2504 27.7256 36.2361 27.7454 36.2215C27.7798 36.196 27.8136 36.1703 27.8472 36.1443C27.8591 36.1351 27.871 36.1259 27.8826 36.1164C28.0434 35.9892 28.194 35.853 28.3309 35.7104C28.3461 35.6947 28.3613 35.6787 28.3759 35.6627C28.3908 35.6467 28.4057 35.6308 28.42 35.6145C28.5405 35.4808 28.6482 35.3419 28.7405 35.2003C28.7484 35.1884 28.756 35.1765 28.7635 35.1643C28.7733 35.1492 28.7828 35.134 28.792 35.1186C28.8242 35.0652 28.8545 35.0114 28.8821 34.9572C28.9815 34.7634 29.05 34.566 29.0803 34.3703C29.0803 34.3703 29.1006 34.4935 29.1027 34.6963V34.6973C29.1111 35.4905 28.8437 37.4963 26.0223 38.1203C26.0223 38.1203 26.0217 38.1227 26.0204 38.1279C26.0196 38.1314 26.0182 38.136 26.0166 38.1419C26.0095 38.1685 25.9955 38.2194 25.973 38.29C25.97 38.2998 25.9668 38.3098 25.9633 38.3203C25.9568 38.3406 25.9494 38.3626 25.9416 38.3856C25.9373 38.3983 25.9327 38.4113 25.9281 38.4248C25.9159 38.4595 25.9026 38.4963 25.888 38.5358C25.885 38.5437 25.882 38.5515 25.8791 38.5596C25.8774 38.564 25.8758 38.5686 25.8739 38.5732C25.8701 38.5835 25.8661 38.5938 25.862 38.6043C25.8347 38.6747 25.8038 38.7513 25.7683 38.8328C25.7632 38.8447 25.7578 38.8569 25.7524 38.8693C25.7253 38.9308 25.6961 38.9947 25.6641 39.061C25.6579 39.0743 25.6514 39.0875 25.6446 39.1011C25.6251 39.1411 25.6046 39.1823 25.5829 39.2237C25.5764 39.2367 25.5696 39.25 25.5623 39.2632C25.5547 39.2781 25.5469 39.293 25.5388 39.3079C25.5315 39.322 25.5236 39.3361 25.5158 39.3504C25.4846 39.4075 25.4519 39.4657 25.4172 39.5245C25.4088 39.5391 25.4002 39.5537 25.3912 39.5686C25.3736 39.5981 25.3555 39.6279 25.3368 39.6579C25.3276 39.6728 25.3181 39.6877 25.3084 39.7029C25.2886 39.7345 25.2681 39.7662 25.2472 39.7979C25.2383 39.8114 25.2291 39.825 25.2199 39.8388C25.1996 39.8691 25.1787 39.8994 25.1573 39.93C25.1473 39.9446 25.137 39.959 25.1267 39.9736C25.1043 40.0047 25.0815 40.0361 25.0583 40.0673C25.0472 40.0824 25.0358 40.0976 25.0239 40.113C25.0125 40.1284 25.0006 40.1436 24.9887 40.159C24.977 40.1742 24.9651 40.1896 24.9527 40.2048C24.9408 40.2199 24.9286 40.2354 24.9161 40.2505C24.9039 40.2657 24.8915 40.2809 24.8788 40.2963C24.8663 40.3114 24.8536 40.3266 24.8406 40.3418C24.8279 40.3569 24.8149 40.3721 24.8016 40.3872C24.7889 40.4024 24.7756 40.4176 24.7621 40.4325C24.7491 40.4476 24.7356 40.4625 24.7217 40.4777C24.7082 40.4926 24.6947 40.5077 24.6806 40.5226C24.6389 40.5675 24.5961 40.6122 24.5523 40.6563C24.5377 40.6712 24.5228 40.6858 24.5079 40.7002C24.4911 40.717 24.474 40.7332 24.457 40.7497C24.4437 40.7625 24.4305 40.7749 24.4169 40.7874C24.4015 40.802 24.3858 40.8163 24.3701 40.8304C24.3517 40.8472 24.3333 40.864 24.3143 40.8805C24.3011 40.8921 24.2878 40.9038 24.2743 40.9154C24.2407 40.9447 24.2063 40.9733 24.1714 41.0018C24.1557 41.0148 24.14 41.0275 24.124 41.0399C24.107 41.0538 24.0896 41.0673 24.0723 41.0806C24.0536 41.0952 24.0347 41.1095 24.0155 41.1239C23.9992 41.136 23.983 41.1482 23.9665 41.1601C23.9486 41.1731 23.9304 41.1864 23.912 41.1991C23.8527 41.2411 23.7921 41.282 23.7296 41.3218C23.7152 41.3312 23.7006 41.3404 23.686 41.3494C23.6665 41.3616 23.647 41.3737 23.6272 41.3854C23.6075 41.3973 23.5877 41.4092 23.5677 41.4208C23.5501 41.4311 23.5325 41.4411 23.5146 41.4512C23.4987 41.4604 23.4827 41.4693 23.4664 41.478C23.4207 41.5034 23.3739 41.528 23.3262 41.5519C23.3048 41.5627 23.2834 41.5735 23.2615 41.5841C23.2166 41.6057 23.1711 41.6271 23.1248 41.6477C23.0815 41.6669 23.0376 41.6856 22.9932 41.7037C22.9009 41.7414 22.8062 41.7768 22.7084 41.8093C22.6724 41.8215 22.6359 41.8331 22.5988 41.8445C22.5492 41.8597 22.4989 41.8743 22.448 41.8878C22.4106 41.8984 22.3727 41.9081 22.3346 41.9176C22.2572 41.9366 22.1784 41.9539 22.098 41.9696C22.0858 41.972 22.0733 41.9745 22.0609 41.9766C22.0446 41.9796 22.0281 41.9829 22.0116 41.9856C21.8779 42.0094 21.7398 42.0281 21.5974 42.0419C21.5684 42.0448 21.5395 42.0473 21.5102 42.0494C21.4829 42.0519 21.4553 42.0538 21.4274 42.0554C21.4098 42.0568 21.3919 42.0578 21.3741 42.0586C21.357 42.06 21.34 42.0608 21.3229 42.0614C21.2961 42.0627 21.2693 42.0638 21.2425 42.0646C21.2206 42.0654 21.1984 42.0662 21.1759 42.0665C21.1672 42.0668 21.1591 42.067 21.1507 42.067Z" fill="white"/>
<path d="M24.0846 18.1704C24.772 19.3034 26.3508 18.8009 27.8557 17.8881C29.3606 16.975 30.1143 15.6262 29.4272 14.4933C28.7399 13.3603 26.9626 13.1819 25.4577 14.0951C23.9525 15.0082 23.3973 17.0375 24.0846 18.1704Z" fill="white"/>
<path d="M32.7684 10.4375L32.9095 10.7429C32.8507 10.6933 32.7917 10.6454 32.7324 10.5988C32.7324 10.5988 32.7427 10.539 32.7684 10.4375Z" fill="white"/>
<path d="M32.8672 10.1102C32.9286 9.93392 33.015 9.72466 33.133 9.50781L32.8672 10.1102Z" fill="white"/>
<path d="M36.9576 8.45854C36.7928 8.32535 36.5505 8.16346 36.2451 8.05273C36.5031 8.13097 36.7451 8.26362 36.9576 8.45854Z" fill="white"/>
<path d="M37.9079 15.4002C36.9802 15.3028 36.609 14.1365 36.609 14.1365C36.609 14.1365 35.6542 12.0506 34.4731 10.8535C34.3169 10.6954 34.2687 10.4596 34.3485 10.2523C34.6428 9.48507 35.4899 7.8494 37.1513 8.66236H37.1515C37.386 8.94905 37.5703 9.33157 37.68 9.82509C38.1524 11.9502 38.0836 13.9587 37.9079 15.4002Z" fill="white"/>
<path d="M9.23134 10.441L9.09274 10.7412C7.37207 12.1868 5.87744 14.8231 5.09372 16.3697C4.8896 16.7725 4.28942 16.6818 4.21335 16.2365C4.17085 15.9866 4.12889 15.7069 4.0918 15.4021C5.02117 15.306 5.39259 14.1381 5.39259 14.1381C5.39259 14.1381 6.3474 12.0523 7.52854 10.8552C7.68474 10.6971 7.73266 10.4613 7.65307 10.2539C7.35853 9.48642 6.51092 7.84913 4.84737 8.66534C4.90557 8.59387 4.96702 8.52836 5.03145 8.46853C5.19767 8.3329 5.44673 8.16397 5.76293 8.05081C6.38639 7.86456 7.10189 7.99261 7.72021 8.32234C8.2749 8.61796 8.63983 9.08928 8.87481 9.52649L9.12414 10.0907C9.17422 10.2314 9.20887 10.3524 9.23134 10.441Z" fill="#BDBDBD"/>
<path d="M4.84744 8.66361C4.83011 8.672 4.81252 8.68066 4.79492 8.68987C4.79492 8.68987 4.79898 8.68526 4.80683 8.6766C4.80819 8.67471 4.81008 8.67281 4.81198 8.67092C4.81414 8.66848 4.81685 8.6655 4.81983 8.66253C4.85502 8.62517 4.92676 8.55261 5.03153 8.4668C4.9671 8.52663 4.90564 8.59214 4.84744 8.66361Z" stroke="black" stroke-width="0.0270716" stroke-miterlimit="10"/>
<path d="M5.76367 8.04861C6.46077 7.79874 7.48434 7.81796 8.66656 9.05107L8.87556 9.52428C8.64057 9.08708 8.27565 8.61576 7.72095 8.32014C7.10263 7.99041 6.38713 7.86236 5.76367 8.04861Z" stroke="black" stroke-width="0.0270716" stroke-miterlimit="10"/>
<path d="M9.23123 10.4402C9.20876 10.3516 9.17411 10.2306 9.12402 10.0898L9.25559 10.3874L9.23123 10.4402Z" stroke="black" stroke-width="0.0270716" stroke-miterlimit="10"/>
<path d="M37.9066 15.4018C37.8695 15.7069 37.8275 15.9866 37.785 16.2365C37.709 16.6818 37.1088 16.7725 36.9047 16.3697C36.1215 14.8239 34.6279 12.1898 32.9086 10.7439L32.7676 10.4385V10.4383C32.7892 10.3546 32.8212 10.2423 32.8667 10.1118L33.1325 9.50944L33.1328 9.50917C33.3683 9.07683 33.7308 8.61418 34.2782 8.32235C34.8987 7.99153 35.6171 7.86348 36.2422 8.05299C36.2428 8.05299 36.2436 8.05326 36.2441 8.05353H36.2444C36.5498 8.16425 36.792 8.32614 36.9569 8.45933C37.0246 8.52105 37.089 8.58927 37.1499 8.66399C35.4885 7.85103 34.6415 9.4867 34.3472 10.2539C34.2673 10.4613 34.3155 10.6971 34.4717 10.8552C35.6529 12.0523 36.6077 14.1381 36.6077 14.1381C36.6077 14.1381 36.9788 15.3044 37.9066 15.4018Z" fill="#BDBDBD"/>
<path d="M32.7681 10.4378L32.7451 10.3877L32.8672 10.1113C32.8217 10.2418 32.7898 10.3542 32.7681 10.4378Z" stroke="black" stroke-width="0.0270716" stroke-miterlimit="10"/>
<path d="M33.1338 9.50692L33.3352 9.05104C34.5204 7.81495 35.5459 7.79843 36.2432 8.05074C35.6182 7.86124 34.8997 7.98929 34.2792 8.3201C33.7318 8.61193 33.3693 9.07459 33.1338 9.50692Z" stroke="black" stroke-width="0.0270716" stroke-miterlimit="10"/>
<path d="M36.957 8.45898C37.045 8.53018 37.1111 8.59299 37.1528 8.63549C37.1552 8.63793 37.1576 8.64036 37.1598 8.64253C37.1649 8.6474 37.1693 8.65201 37.1731 8.65607C37.1944 8.67854 37.2053 8.69126 37.2053 8.69126C37.1869 8.68178 37.1687 8.67231 37.1503 8.66365H37.1501C37.0891 8.58893 37.0247 8.52071 36.957 8.45898Z" stroke="black" stroke-width="0.0270716" stroke-miterlimit="10"/>
<path d="M39.106 35.4226C35.009 42.461 26.0047 43.5116 21.0008 43.5116H20.9992C15.9953 43.5116 6.99123 42.461 2.89421 35.4226C1.57637 33.1586 1.25205 31.1995 1.30403 29.7121C1.6213 29.4856 2.0891 29.2376 2.70661 29.1328C2.60103 30.0798 2.64705 31.2742 2.96649 32.7712C4.17416 38.4279 13.019 42.6987 21 42.6971C28.9812 42.6987 37.8261 38.4279 39.0335 32.7712C39.3532 31.2742 39.3989 30.08 39.2936 29.1331C39.9111 29.2384 40.3792 29.4866 40.6962 29.7135C40.7479 31.2005 40.4231 33.1594 39.106 35.4226Z" fill="#BDBDBD"/>
<path d="M9.09319 10.7402L8.85929 11.2473C8.85929 11.2473 8.85902 11.2476 8.85848 11.2481C8.78485 11.3304 3.84184 16.8695 4.31776 24.4201C4.36432 25.1626 4.14125 25.8963 3.6832 26.4824C3.28416 26.993 2.85237 27.8281 2.70727 29.1322C2.08976 29.2369 1.62197 29.4849 1.30469 29.7115C1.3212 29.2272 1.37805 28.7929 1.45331 28.4145C1.78034 26.7704 2.49746 25.8348 2.50477 25.8256C2.59709 25.7068 2.6358 25.5546 2.61171 25.406C2.60819 25.3835 2.24272 23.1177 1.9877 19.9909C1.81363 17.8514 1.66582 14.9721 1.7844 12.0968C1.79116 12.1425 2.19453 14.9033 3.52862 15.334C3.73572 15.4009 3.92333 15.4188 4.09225 15.4012C4.12934 15.706 4.1713 15.9856 4.2138 16.2355C4.28988 16.6808 4.89005 16.7715 5.09417 16.3687C5.8779 14.8221 7.37252 12.1859 9.09319 10.7402Z" fill="#B41B0B"/>
<path d="M40.6966 29.7121C40.3796 29.4852 39.9115 29.237 39.294 29.1317C39.1489 27.8274 38.7169 26.9922 38.3181 26.4816C37.86 25.8955 37.6367 25.1619 37.6835 24.4193C38.1594 16.8688 33.2162 11.3296 33.1425 11.2473C33.142 11.2468 33.1417 11.2465 33.1417 11.2465L32.9092 10.7422C34.6285 12.1881 36.122 14.8222 36.9052 16.3679C37.1093 16.7708 37.7095 16.6801 37.7856 16.2347C37.8281 15.9849 37.8701 15.7052 37.9071 15.4001C38.0766 15.4183 38.2645 15.4004 38.4724 15.3333C39.8092 14.9017 40.2117 12.131 40.2169 12.0958C40.3355 14.971 40.1877 17.8507 40.0133 19.9901C39.7586 23.1169 39.3931 25.3828 39.3893 25.4053C39.3652 25.5539 39.4039 25.706 39.4965 25.8249C39.5038 25.8341 40.221 26.7697 40.548 28.4137C40.6235 28.7927 40.6801 29.2272 40.6966 29.7121Z" fill="#B41B0B"/>
<path d="M15.9783 38.1216C13.1498 37.4959 12.8883 35.4815 12.8981 34.6927C12.747 38.3541 15.7631 38.5347 15.7631 38.5347C15.7631 38.5347 15.9913 41.9977 20.8498 42.0683C16.9252 41.9982 15.9783 38.1216 15.9783 38.1216ZM25.4106 36.7127C23.3542 36.5089 22.116 35.3884 21.904 35.1448C21.6923 34.9011 21.597 34.2549 21.597 34.2549C21.597 34.2549 23.4931 33.397 24.0121 32.2846C24.5313 31.1723 24.4387 30.166 24.4387 30.166L24.4287 30.1714C24.4355 30.2294 24.4387 30.2881 24.4387 30.3482C24.4387 31.6116 22.9506 33.7346 21.0009 33.736H20.999C20.0239 33.7354 19.1646 33.2043 18.5487 32.5153C17.9331 31.8266 17.5612 30.9801 17.5612 30.3482C17.5612 30.2881 17.5644 30.2291 17.5712 30.1714L17.5612 30.166C17.5612 30.166 17.4686 31.1723 17.9875 32.2846C18.5068 33.397 20.4029 34.2549 20.4029 34.2549C20.4029 34.2549 20.3076 34.9011 20.0956 35.1448C19.8839 35.3884 18.6456 36.5089 16.5893 36.7127C14.9815 36.8719 13.6312 35.5451 13.1187 34.9588C13.7367 36.1643 15.5495 37.2439 16.8329 37.0552C18.323 36.8362 20.6782 35.5579 20.6782 35.5579L20.999 34.3359V34.3291L20.9998 34.3326L21.0009 34.3291V34.3359L21.3214 35.5579C21.3214 35.5579 23.6766 36.8362 25.1669 37.0552C26.4504 37.2439 28.2634 36.1643 28.8812 34.9585C28.3687 35.5446 27.0184 36.8719 25.4106 36.7127ZM29.1018 34.6975C29.1105 35.4899 28.8441 37.4973 26.0213 38.1216C26.0213 38.1216 25.0746 41.9982 21.15 42.0683C23.5545 42.0334 24.825 41.1674 25.495 40.3016C26.1786 39.418 26.2368 38.5347 26.2368 38.5347C26.2368 38.5347 29.2499 38.3544 29.1018 34.6975Z" fill="#BDBDBD"/>
<path d="M11.9697 10.252H11.97C11.9697 10.2526 11.9691 10.2529 11.9688 10.2532C11.9691 10.2529 11.9694 10.2523 11.9697 10.252Z" stroke="black" stroke-width="0.0270716" stroke-miterlimit="10"/>
<path d="M14.0245 8.29084C13.3274 7.17793 9.99295 2.14856 6.50206 1.89761C5.13874 1.79961 4.36801 2.3941 3.97168 2.87977C4.58729 1.96935 5.31145 1.38081 6.11413 1.1729C8.38815 0.584365 11.4762 2.86298 15.0524 7.76566C14.6666 7.93296 14.3255 8.11055 14.0245 8.29084Z" fill="#F6897E"/>
<path d="M30.0321 10.2522C29.9712 10.1988 27.9741 8.49385 21.001 8.49439C14.0436 8.49385 12.04 10.1912 11.9707 10.2516C11.9813 10.24 11.9921 10.2283 12.0032 10.217C12.1423 10.077 12.7114 9.55073 13.8931 9.02933C15.1706 8.46543 17.4405 7.79297 21.001 7.79297C24.5614 7.79297 26.8317 8.46543 28.1092 9.02933C29.3036 9.55669 29.8724 10.0886 30.0037 10.2218C30.0118 10.2302 30.0196 10.2386 30.0277 10.2473C30.0291 10.2489 30.0307 10.2505 30.0321 10.2522Z" fill="#F6897E"/>
<path d="M38.0291 2.87868C37.6325 2.39329 36.8618 1.79961 35.4995 1.89761C32.0086 2.14856 28.6742 7.17793 27.9771 8.29084C27.6761 8.11082 27.3347 7.93296 26.9492 7.76566C30.5251 2.86298 33.6132 0.584365 35.8875 1.1729C36.6896 1.38054 37.4135 1.96881 38.0291 2.87868Z" fill="#F6897E"/>
<path d="M41.6105 28.2031C41.3217 26.7516 40.7564 25.764 40.4925 25.3617C40.5902 24.7158 40.8793 22.6962 41.0921 20.0895C41.3312 17.1612 41.5207 12.8657 41.0656 9.03101C40.8033 6.82008 40.284 4.86713 39.5639 3.38333C38.6887 1.57982 37.543 0.483961 36.1591 0.125533C34.7977 -0.22694 33.2717 0.163704 31.623 1.28663C29.9394 2.43312 28.091 4.37442 26.125 7.05912C26.0552 7.15441 25.9215 7.38316 25.8825 7.37098C24.6334 6.98007 23.0348 6.71016 21.002 6.70989C21.0017 6.70989 21.0015 6.70989 21.0012 6.70989C21.0009 6.70989 21.0006 6.70989 21.0004 6.70989C18.9673 6.71016 17.369 6.98007 16.1199 7.37098C16.0809 7.38316 15.9472 7.15441 15.8773 7.05912C13.9114 4.37415 12.0629 2.43312 10.3794 1.28663C8.7307 0.163704 7.2044 -0.22694 5.84324 0.125533C4.45934 0.483961 3.31367 1.57982 2.43845 3.38333C1.71834 4.86713 1.19911 6.82008 0.936782 9.03101C0.481708 12.8657 0.671209 17.1612 0.910252 20.0895C1.12303 22.6965 1.41216 24.716 1.50989 25.3617C1.24594 25.764 0.680685 26.7516 0.39183 28.2031C0.17255 29.305 0.155766 30.4531 0.342289 31.6155C0.572939 33.0552 1.11708 34.5189 1.95982 35.9667C3.73518 39.0166 6.54007 41.3066 10.2968 42.7734C13.3475 43.9645 17.049 44.5939 21.0006 44.5939C21.0015 44.5939 21.0017 44.5939 21.0025 44.5939C24.9542 44.5939 28.6557 43.9642 31.7064 42.7734C35.4631 41.3066 38.2683 39.0166 40.0434 35.9667C40.8861 34.5192 41.4302 33.0552 41.6609 31.6155C41.8466 30.4531 41.8298 29.305 41.6105 28.2031ZM39.107 35.4221C35.0099 42.4604 26.0059 43.5111 21.002 43.5111C21.0017 43.5111 21.0006 43.5111 21.0004 43.5111C15.9965 43.5111 6.99243 42.4604 2.89541 35.4221C1.14848 32.4209 1.14713 29.9549 1.45385 28.4146C1.78088 26.7705 2.498 25.8349 2.50531 25.8257C2.5979 25.7069 2.63661 25.555 2.61252 25.4064C2.609 25.3839 2.24326 23.118 1.98852 19.9912C1.75407 17.1151 1.56782 12.9012 2.0118 9.15879C2.5424 4.68683 4.07601 1.70164 6.1145 1.17402C8.38879 0.585209 11.4768 2.8641 15.0527 7.76677C12.6501 8.80984 11.9717 10.2503 11.9717 10.2503L11.9687 10.2538C11.9742 10.2476 12.5207 9.63552 13.893 9.02966C15.1705 8.46576 17.4407 7.7933 21.0009 7.7933C24.5614 7.7933 26.8316 8.46576 28.1088 9.02966C29.4811 9.63552 30.0277 10.2476 30.0331 10.2538L30.0301 10.2503C30.0301 10.2503 29.3517 8.80984 26.9491 7.76677C30.5253 2.8641 33.6133 0.58548 35.8873 1.17402C37.9256 1.70164 39.4594 4.68656 39.99 9.15879C40.434 12.9012 40.2478 17.1151 40.0133 19.9912C39.7586 23.118 39.3931 25.3839 39.3893 25.4064C39.3652 25.555 39.4039 25.7069 39.4965 25.8257C39.5038 25.8349 40.221 26.7708 40.548 28.4146C40.855 29.9549 40.8536 32.4209 39.107 35.4221Z" fill="#550400"/>
<path d="M35.2126 7.57756C33.7076 7.80063 32.9255 9.14311 32.5934 9.92331C32.4177 10.3362 32.5509 10.8102 32.9177 11.0763C34.4486 12.187 35.8542 14.4881 35.8682 14.5111C35.8682 14.5111 34.856 11.8135 33.2358 10.638C33.0747 10.5211 33.0154 10.3145 33.0918 10.1353C33.3795 9.45904 34.0479 8.29739 35.2921 8.11304C36.5429 7.9276 37.1804 8.66097 37.2061 8.69102C37.2058 8.69129 36.7759 7.3461 35.2126 7.57756Z" fill="#550400"/>
<path d="M25.1672 37.054C23.6772 36.835 21.322 35.5569 21.322 35.5569L21.0012 34.3349V34.3281L21.0003 34.3316L20.9995 34.3281V34.3349L20.6787 35.5569C20.6787 35.5569 18.3235 36.8352 16.8335 37.054C15.3435 37.2727 13.1401 35.7827 12.9211 34.3704C12.9211 34.3704 12.4338 37.3366 15.9791 38.1203C15.9791 38.1203 16.9496 42.095 20.9995 42.0682C20.9998 42.0682 21.0001 42.0682 21.0003 42.0682C21.0006 42.0682 21.0009 42.0682 21.0012 42.0682C25.0511 42.0952 26.0216 38.1203 26.0216 38.1203C29.5669 37.3363 29.0796 34.3704 29.0796 34.3704C28.8606 35.7827 26.6572 37.273 25.1672 37.054ZM24.3621 39.884C24.3621 39.884 23.4089 41.2874 21.0003 41.2877C18.5915 41.2877 17.6386 39.884 17.6386 39.884C17.6386 39.884 17.4957 38.4487 18.7456 38.1309C19.6941 37.8897 20.6119 38.3805 20.9995 38.6312V38.6322C20.9998 38.632 21.0001 38.632 21.0003 38.6317C21.0006 38.632 21.0009 38.632 21.0012 38.6322V38.6312C21.3888 38.3805 22.3066 37.8897 23.2551 38.1309C24.505 38.4487 24.3621 39.884 24.3621 39.884Z" fill="#550400"/>
<path d="M29.1474 28.0794C31.1617 28.0794 32.7947 26.0924 32.7947 23.6412C32.7947 21.1901 31.1617 19.2031 29.1474 19.2031C27.133 19.2031 25.5 21.1901 25.5 23.6412C25.5 26.0924 27.133 28.0794 29.1474 28.0794Z" fill="#550400"/>
<path d="M9.40836 9.92331C9.07619 9.14284 8.29436 7.80036 6.78918 7.57756C5.22607 7.3461 4.7959 8.69129 4.7959 8.69129C4.82135 8.66124 5.45915 7.92787 6.70986 8.11331C7.9538 8.29766 8.62247 9.45931 8.91024 10.1356C8.98659 10.3148 8.9273 10.5213 8.76622 10.6383C7.14599 11.8137 6.13378 14.5114 6.13378 14.5114C6.14785 14.4884 7.55341 12.187 9.08431 11.0766C9.45086 10.8102 9.58406 10.3362 9.40836 9.92331Z" fill="#550400"/>
<path d="M21.0003 33.736C21.0006 33.736 21.0009 33.736 21.0011 33.736C21.0014 33.736 21.0017 33.736 21.0019 33.736C22.9519 33.7347 24.4398 31.6117 24.4398 30.3486C24.4398 29.0851 22.9516 28.313 21.0019 28.3125C21.0017 28.3125 21.0014 28.3125 21.0011 28.3125C21.0009 28.3125 21.0006 28.3125 21.0003 28.3125C19.0504 28.313 17.5625 29.0854 17.5625 30.3486C17.5625 31.6117 19.0504 33.7347 21.0003 33.736Z" fill="#550400"/>
<path d="M12.8534 28.0794C14.8678 28.0794 16.5008 26.0924 16.5008 23.6412C16.5008 21.1901 14.8678 19.2031 12.8534 19.2031C10.839 19.2031 9.20605 21.1901 9.20605 23.6412C9.20605 26.0924 10.839 28.0794 12.8534 28.0794Z" fill="#550400"/>
<path d="M14.6921 23.7487C15.3053 23.3947 15.4383 22.4769 14.9891 21.6989C14.5399 20.9209 13.6786 20.5772 13.0654 20.9312C12.4522 21.2853 12.3192 22.203 12.7684 22.981C13.2177 23.759 14.0789 24.1028 14.6921 23.7487Z" fill="white"/>
<path d="M12.7282 25.0404C12.9972 25.0404 13.2152 24.8224 13.2152 24.5534C13.2152 24.2845 12.9972 24.0664 12.7282 24.0664C12.4593 24.0664 12.2412 24.2845 12.2412 24.5534C12.2412 24.8224 12.4593 25.0404 12.7282 25.0404Z" fill="white"/>
<path d="M29.2283 22.9847C29.6775 22.2067 29.5446 21.2889 28.9314 20.9349C28.3182 20.5808 27.4569 20.9245 27.0077 21.7026C26.5585 22.4806 26.6914 23.3983 27.3046 23.7524C27.9179 24.1064 28.7791 23.7627 29.2283 22.9847Z" fill="white"/>
<path d="M29.2692 25.0404C29.5382 25.0404 29.7563 24.8224 29.7563 24.5534C29.7563 24.2845 29.5382 24.0664 29.2692 24.0664C29.0003 24.0664 28.7822 24.2845 28.7822 24.5534C28.7822 24.8224 29.0003 25.0404 29.2692 25.0404Z" fill="white"/>
<path d="M22.8472 29.4048C22.8472 29.7267 22.0199 29.7438 20.9993 29.7438C19.9787 29.7438 19.1514 29.7265 19.1514 29.4048C19.1514 29.083 19.9787 28.8223 20.9993 28.8223C22.0199 28.8223 22.8472 29.083 22.8472 29.4048Z" fill="#8C231A"/>
<path d="M41.464 19.0741C39.6513 18.2833 36.8702 17.645 36.8198 17.6336H36.8196C35.1812 17.2486 33.2015 17.1209 30.9223 17.2543C29.2493 17.3521 27.7373 17.6387 26.4284 18.106C25.4609 18.4512 24.6211 18.887 23.9324 19.4014C23.6763 19.5928 23.4578 19.8242 23.2832 20.0844C22.7662 19.8621 22.0293 19.6791 21.0033 19.6791C21.0024 19.6791 21.0014 19.6791 21.0005 19.6791C21 19.6791 20.9997 19.6791 20.9995 19.6791C20.9986 19.6791 20.9976 19.6791 20.9968 19.6791C19.9707 19.6791 19.2336 19.8621 18.7168 20.0844C18.5422 19.8245 18.3237 19.5928 18.0676 19.4014C17.3789 18.887 16.5391 18.4512 15.5716 18.106C14.2627 17.6387 12.7507 17.3521 11.0777 17.2543C8.79855 17.1209 6.8188 17.2486 5.18043 17.6336H5.18016C5.1298 17.645 2.34873 18.2833 0.536018 19.0741C0.209805 19.2162 0 19.5392 0 19.8949V20.3806C0 20.6358 0.101519 20.8808 0.282086 21.0617L1.00219 21.7815C1.42613 22.2055 1.67465 22.7734 1.69983 23.3725C1.7426 24.3877 1.86848 25.5242 2.15111 26.6441C2.35063 27.4352 2.76185 28.1715 3.37285 28.8331C3.9511 29.4585 4.68123 29.9883 5.54346 30.4071C6.80256 31.0189 8.27119 31.3532 9.79045 31.3744C9.84027 31.3749 9.89008 31.3752 9.93989 31.3752C11.5255 31.3752 13.1398 31.0289 14.6187 30.3703C15.6826 29.8965 16.5814 29.2276 17.2901 28.3824C17.8908 27.6661 18.3597 26.8177 18.6838 25.8607C19.2468 24.1977 19.269 22.5455 19.1886 21.4521C19.1865 21.4209 19.1835 21.3901 19.18 21.3592C19.5211 21.1997 20.0936 21.0327 20.9968 21.0327C20.9978 21.0327 20.9989 21.0327 21 21.0327C21.0011 21.0327 21.0022 21.0327 21.0033 21.0327C21.9064 21.0327 22.4789 21.1997 22.82 21.3592C22.8168 21.3901 22.8138 21.4209 22.8114 21.4521C22.731 22.5455 22.7532 24.1977 23.3162 25.8607C23.6403 26.8177 24.1092 27.6661 24.7099 28.3824C25.4186 29.2276 26.3174 29.8965 27.3813 30.3703C28.8602 31.0289 30.4745 31.3752 32.0601 31.3752C32.1099 31.3752 32.1597 31.3749 32.2095 31.3744C33.7288 31.3532 35.1974 31.0189 36.4565 30.4071C37.3188 29.9883 38.0489 29.4585 38.6271 28.8331C39.2382 28.1715 39.6494 27.4352 39.8489 26.6441C40.1315 25.5242 40.2574 24.3877 40.3002 23.3725C40.3253 22.7734 40.5739 22.2055 40.9978 21.7815L41.7179 21.0617C41.8985 20.8808 42 20.6358 42 20.3806V19.8949C42 19.5392 41.7902 19.2162 41.464 19.0741ZM14.0675 29.1336C12.7307 29.7289 11.3073 30.027 9.92337 30.027C8.58495 30.027 7.28416 29.7482 6.13443 29.1897C4.72508 28.5048 3.75132 27.4563 3.463 26.313C3.01659 24.5442 2.99818 22.7076 3.06153 21.4786C3.11892 20.3624 3.87882 19.403 4.95248 19.0917C6.18018 18.7354 7.66479 18.5565 9.38005 18.5565C9.89874 18.5565 10.438 18.5727 10.9981 18.6055C14.5296 18.8123 16.4355 19.8724 17.2571 20.4859C17.5952 20.7385 17.8069 21.1267 17.838 21.5514C17.9647 23.2699 17.8505 27.449 14.0675 29.1336ZM38.5365 26.313C38.2481 27.4563 37.2744 28.5048 35.865 29.1897C34.7153 29.7482 33.4145 30.027 32.0761 30.027C30.6922 30.027 29.2688 29.7289 27.932 29.1336C24.149 27.449 24.0347 23.2699 24.1614 21.5514C24.1926 21.1267 24.4043 20.7385 24.7424 20.4859C25.564 19.8724 27.4698 18.8123 31.0013 18.6055C31.5615 18.5727 32.1007 18.5565 32.6194 18.5565C34.3347 18.5565 35.8193 18.7354 37.047 19.0917C38.1206 19.403 38.8805 20.3624 38.9379 21.4786C39.0013 22.7076 38.9829 24.5442 38.5365 26.313Z" fill="#550400"/>
<path opacity="0.15" d="M38.5366 26.3132C38.2483 27.4564 37.2745 28.5049 35.8651 29.1898C34.7154 29.7483 33.4146 30.0272 32.0762 30.0272C30.6923 30.0272 29.2689 29.7291 27.9321 29.1338C24.1491 27.4491 24.0348 23.2701 24.1615 21.5516C24.1927 21.1268 24.4044 20.7386 24.7425 20.486C25.5641 19.8726 27.47 18.8125 31.0015 18.6056C31.5616 18.5729 32.1008 18.5566 32.6195 18.5566C34.3348 18.5566 35.8194 18.7356 37.0471 19.0918C38.1208 19.4032 38.8807 20.3626 38.938 21.4788C39.0014 22.7078 38.983 24.5443 38.5366 26.3132Z" fill="white"/>
<path d="M25.3799 19.0528C25.3799 19.0528 31.291 16.8706 38.113 18.7775C38.113 18.7775 32.6256 15.8113 25.3799 19.0528Z" fill="#A56463"/>
<path opacity="0.15" d="M3.4634 26.3132C3.75172 27.4564 4.72548 28.5049 6.13483 29.1898C7.28456 29.7483 8.58535 30.0272 9.92377 30.0272C11.3077 30.0272 12.7311 29.7291 14.0679 29.1338C17.8509 27.4491 17.9651 23.2701 17.8384 21.5516C17.8073 21.1268 17.5956 20.7386 17.2575 20.486C16.4359 19.8726 14.53 18.8125 10.9985 18.6056C10.4384 18.5729 9.89914 18.5566 9.38045 18.5566C7.66519 18.5566 6.18058 18.7356 4.95288 19.0918C3.87922 19.4032 3.11932 20.3626 3.06193 21.4788C2.99858 22.7078 3.01699 24.5443 3.4634 26.3132Z" fill="white"/>
<path d="M16.6208 19.0528C16.6208 19.0528 10.7097 16.8706 3.8877 18.7775C3.8877 18.7775 9.37511 15.8113 16.6208 19.0528Z" fill="#A56463"/>
<path d="M56.8706 36V10.1016H69.3388C71.756 10.1016 73.8402 10.4962 75.5914 11.2855C77.3673 12.0748 78.7363 13.2094 79.6982 14.6893C80.6601 16.1445 81.1411 17.8711 81.1411 19.869C81.1411 21.8669 80.6601 23.5934 79.6982 25.0487C78.7363 26.4792 77.3673 27.5768 75.5914 28.3415C73.8402 29.1061 71.756 29.4884 69.3388 29.4884H61.7173L65.6021 25.8996V36H56.8706ZM72.3726 36L66.009 26.5656H75.2585L81.6961 36H72.3726ZM65.6021 26.8616L61.7173 22.9028H68.7839C69.9925 22.9028 70.8804 22.6315 71.4477 22.0889C72.0397 21.5462 72.3356 20.8063 72.3356 19.869C72.3356 18.9317 72.0397 18.1918 71.4477 17.6491C70.8804 17.1065 69.9925 16.8352 68.7839 16.8352H61.7173L65.6021 12.8764V26.8616ZM92.4297 19.721H103.973V26.0106H92.4297V19.721ZM93.0217 29.4144H105.971V36H84.4382V10.1016H105.49V16.6872H93.0217V29.4144ZM109.332 36V10.1016H122.096C124.982 10.1016 127.523 10.6319 129.718 11.6925C131.913 12.7284 133.627 14.2083 134.861 16.1322C136.094 18.0561 136.711 20.35 136.711 23.0138C136.711 25.7023 136.094 28.0208 134.861 29.9694C133.627 31.8933 131.913 33.3855 129.718 34.4461C127.523 35.482 124.982 36 122.096 36H109.332ZM118.064 29.1924H121.726C122.96 29.1924 124.033 28.9581 124.945 28.4895C125.883 28.0208 126.61 27.3302 127.128 26.4176C127.646 25.4803 127.905 24.3457 127.905 23.0138C127.905 21.7065 127.646 20.5966 127.128 19.684C126.61 18.7714 125.883 18.0808 124.945 17.6121C124.033 17.1435 122.96 16.9092 121.726 16.9092H118.064V29.1924ZM294.346 36.592C292.274 36.592 290.35 36.2713 288.574 35.63C286.823 34.9641 285.294 34.0268 283.986 32.8182C282.704 31.6096 281.705 30.179 280.99 28.5265C280.274 26.8739 279.917 25.0487 279.917 23.0508C279.917 21.0529 280.274 19.2277 280.99 17.5751C281.705 15.9226 282.704 14.492 283.986 13.2834C285.294 12.0748 286.823 11.1499 288.574 10.5086C290.35 9.8426 292.274 9.50962 294.346 9.50962C296.886 9.50962 299.131 9.95359 301.079 10.8415C303.053 11.7295 304.68 13.0121 305.963 14.6893L300.45 19.61C299.686 18.6481 298.835 17.9081 297.898 17.3901C296.985 16.8475 295.949 16.5762 294.79 16.5762C293.877 16.5762 293.051 16.7242 292.311 17.0202C291.571 17.3161 290.93 17.7478 290.387 18.3151C289.869 18.8824 289.462 19.573 289.166 20.387C288.87 21.1762 288.722 22.0642 288.722 23.0508C288.722 24.0374 288.87 24.9377 289.166 25.7516C289.462 26.5409 289.869 27.2192 290.387 27.7865C290.93 28.3538 291.571 28.7854 292.311 29.0814C293.051 29.3774 293.877 29.5254 294.79 29.5254C295.949 29.5254 296.985 29.2664 297.898 28.7484C298.835 28.2058 299.686 27.4535 300.45 26.4916L305.963 31.4123C304.68 33.0648 303.053 34.3474 301.079 35.26C299.131 36.148 296.886 36.592 294.346 36.592ZM316.476 19.721H328.019V26.0106H316.476V19.721ZM317.068 29.4144H330.017V36H308.484V10.1016H329.536V16.6872H317.068V29.4144ZM346.956 36.592C344.86 36.592 342.911 36.259 341.111 35.593C339.335 34.9271 337.793 33.9898 336.486 32.7812C335.179 31.5479 334.155 30.105 333.415 28.4525C332.7 26.7999 332.342 24.9993 332.342 23.0508C332.342 21.0776 332.7 19.277 333.415 17.6491C334.155 15.9966 335.179 14.566 336.486 13.3574C337.793 12.1241 339.335 11.1745 341.111 10.5086C342.911 9.8426 344.86 9.50962 346.956 9.50962C349.077 9.50962 351.026 9.8426 352.802 10.5086C354.578 11.1745 356.119 12.1241 357.427 13.3574C358.734 14.566 359.745 15.9966 360.46 17.6491C361.2 19.277 361.57 21.0776 361.57 23.0508C361.57 24.9993 361.2 26.7999 360.46 28.4525C359.745 30.105 358.734 31.5479 357.427 32.7812C356.119 33.9898 354.578 34.9271 352.802 35.593C351.026 36.259 349.077 36.592 346.956 36.592ZM346.956 29.5254C347.77 29.5254 348.522 29.3774 349.213 29.0814C349.928 28.7854 350.545 28.3661 351.063 27.8235C351.606 27.2562 352.025 26.5779 352.321 25.7886C352.617 24.9747 352.765 24.0621 352.765 23.0508C352.765 22.0395 352.617 21.1392 352.321 20.35C352.025 19.536 351.606 18.8577 351.063 18.3151C350.545 17.7478 349.928 17.3161 349.213 17.0202C348.522 16.7242 347.77 16.5762 346.956 16.5762C346.142 16.5762 345.378 16.7242 344.662 17.0202C343.972 17.3161 343.355 17.7478 342.812 18.3151C342.295 18.8577 341.888 19.536 341.592 20.35C341.296 21.1392 341.148 22.0395 341.148 23.0508C341.148 24.0621 341.296 24.9747 341.592 25.7886C341.888 26.5779 342.295 27.2562 342.812 27.8235C343.355 28.3661 343.972 28.7854 344.662 29.0814C345.378 29.3774 346.142 29.5254 346.956 29.5254Z" fill="black"/>
<path d="M159.13 21.1269H170.526V27.7125H159.13V21.1269ZM159.722 36H150.991V10.1016H172.043V16.6872H159.722V36ZM174.801 36V10.1016H183.532V29.2294H195.224V36H174.801ZM210.852 36.592C208.756 36.592 206.807 36.259 205.007 35.593C203.231 34.9271 201.689 33.9898 200.382 32.7812C199.075 31.5479 198.051 30.105 197.311 28.4525C196.596 26.7999 196.238 24.9993 196.238 23.0508C196.238 21.0776 196.596 19.277 197.311 17.6491C198.051 15.9966 199.075 14.566 200.382 13.3574C201.689 12.1241 203.231 11.1745 205.007 10.5086C206.807 9.8426 208.756 9.50962 210.852 9.50962C212.973 9.50962 214.922 9.8426 216.698 10.5086C218.474 11.1745 220.015 12.1241 221.323 13.3574C222.63 14.566 223.641 15.9966 224.356 17.6491C225.096 19.277 225.466 21.0776 225.466 23.0508C225.466 24.9993 225.096 26.7999 224.356 28.4525C223.641 30.105 222.63 31.5479 221.323 32.7812C220.015 33.9898 218.474 34.9271 216.698 35.593C214.922 36.259 212.973 36.592 210.852 36.592ZM210.852 29.5254C211.666 29.5254 212.418 29.3774 213.109 29.0814C213.824 28.7854 214.441 28.3661 214.959 27.8235C215.502 27.2562 215.921 26.5779 216.217 25.7886C216.513 24.9747 216.661 24.0621 216.661 23.0508C216.661 22.0395 216.513 21.1392 216.217 20.35C215.921 19.536 215.502 18.8577 214.959 18.3151C214.441 17.7478 213.824 17.3161 213.109 17.0202C212.418 16.7242 211.666 16.5762 210.852 16.5762C210.038 16.5762 209.274 16.7242 208.558 17.0202C207.868 17.3161 207.251 17.7478 206.709 18.3151C206.191 18.8577 205.784 19.536 205.488 20.35C205.192 21.1392 205.044 22.0395 205.044 23.0508C205.044 24.0621 205.192 24.9747 205.488 25.7886C205.784 26.5779 206.191 27.2562 206.709 27.8235C207.251 28.3661 207.868 28.7854 208.558 29.0814C209.274 29.3774 210.038 29.5254 210.852 29.5254ZM236.442 30.4503L235.961 20.8679L245.728 10.1016H255.237L244.286 22.1628L239.439 27.1205L236.442 30.4503ZM228.635 36V10.1016H237.219V36H228.635ZM245.654 36L238.033 25.9366L243.694 19.943L255.755 36H245.654ZM256.926 36V10.1016H265.657V36H256.926Z" fill="#F32508"/>
</svg>
