<svg width="36" height="30" viewBox="0 0 36 30" fill="none" xmlns="http://www.w3.org/2000/svg">
<path d="M36 3.44168C34.675 4.04398 33.2467 4.43977 31.7667 4.62906C33.2811 3.71702 34.4512 2.27151 35.0019 0.533461C33.5736 1.39388 31.9904 1.99618 30.3212 2.34034C28.9618 0.860421 27.0516 0 24.8834 0C20.8394 0 17.5354 3.30402 17.5354 7.38241C17.5354 7.9675 17.6042 8.53537 17.7247 9.06884C11.5985 8.75908 6.1434 5.81644 2.51243 1.35946C1.87572 2.44359 1.51434 3.71702 1.51434 5.05927C1.51434 7.62333 2.80497 9.89484 4.80115 11.1855C3.57935 11.1855 2.4436 10.8413 1.44551 10.325V10.3767C1.44551 13.956 3.99235 16.9503 7.3652 17.6214C6.28232 17.9178 5.14548 17.959 4.04398 17.7419C4.51137 19.2089 5.42674 20.4925 6.66141 21.4123C7.89607 22.3321 9.38796 22.8419 10.9273 22.87C8.31791 24.9357 5.08336 26.0524 1.75526 26.0363C1.17017 26.0363 0.585086 26.0019 0 25.9331C3.2696 28.0325 7.1587 29.2543 11.3231 29.2543C24.8834 29.2543 32.3346 18 32.3346 8.24283C32.3346 7.91587 32.3346 7.60612 32.3174 7.27916C33.7629 6.24665 35.0019 4.93881 36 3.44168Z" fill="#F32508"/>
</svg>
